<?xml version="1.0" encoding="UTF-8" standalone="no"?>
<svg
   xmlns:dc="http://purl.org/dc/elements/1.1/"
   xmlns:cc="http://creativecommons.org/ns#"
   xmlns:rdf="http://www.w3.org/1999/02/22-rdf-syntax-ns#"
   xmlns:svg="http://www.w3.org/2000/svg"
   xmlns="http://www.w3.org/2000/svg"
   xmlns:sodipodi="http://sodipodi.sourceforge.net/DTD/sodipodi-0.dtd"
   xmlns:inkscape="http://www.inkscape.org/namespaces/inkscape"
   width="8600"
   height="8600"
   viewBox="0 0 2275.4166 2275.4168"
   version="1.1"
   id="svg8"
   sodipodi:docname="sitcom.svg"
   inkscape:version="1.0.2 (e86c870879, 2021-01-15)">
  <sodipodi:namedview
     pagecolor="#ffffff"
     bordercolor="#666666"
     borderopacity="1"
     objecttolerance="10"
     gridtolerance="10"
     guidetolerance="10"
     inkscape:pageopacity="0"
     inkscape:pageshadow="2"
     inkscape:window-width="1366"
     inkscape:window-height="705"
     id="namedview26"
     showgrid="false"
     inkscape:zoom="0.037150727"
     inkscape:cx="2960.5215"
     inkscape:cy="2192.2444"
     inkscape:window-x="-8"
     inkscape:window-y="-8"
     inkscape:window-maximized="1"
     inkscape:current-layer="svg8" />
  <defs
     id="defs2" />
  <metadata
     id="metadata5">
    <rdf:RDF>
      <cc:Work
         rdf:about="">
        <dc:format>image/svg+xml</dc:format>
        <dc:type
           rdf:resource="http://purl.org/dc/dcmitype/StillImage" />
        <dc:title></dc:title>
      </cc:Work>
    </rdf:RDF>
  </metadata>
  <g
     id="layer1"
     inkscape:export-xdpi="535.06738"
     inkscape:export-ydpi="535.06738"
     transform="matrix(6.5985602,0,0,6.5985602,20.352156,20.352156)">
    <g
       id="g60"
       transform="matrix(1.0338736,0,0,1.0338736,-4.3079411,-8.8087904)">
      <path
         style="fill:#6df5df;stroke-width:0.245188"
         d="M 156.58357,328.18177 C 149.9974,327.7688 141.30334,326.47573 133.70796,324.77945 110.47976,319.59184 88.821064,309.20887 70.522628,294.48901 62.605674,288.12036 58.403804,284.13304 50.644407,275.62575 44.778521,269.1945 37.074328,258.44652 32.309463,250.04702 19.985914,228.32307 13.166304,205.12556 11.896935,180.61198 c -0.303058,-5.85253 -0.1668,-16.56049 0.276119,-21.69913 2.009204,-23.31033 9.473175,-46.62248 21.274328,-66.445909 C 48.299828,67.517986 70.246672,46.7471 95.654384,33.593114 113.39777,24.407075 131.46556,18.99238 152.17019,16.656019 c 4.86254,-0.548701 25.50012,-0.633227 30.40329,-0.124524 34.71055,3.601211 65.44513,17.183885 90.59691,40.037916 6.1541,5.591887 12.3737,12.231339 17.32,18.489192 18.24659,23.084835 29.47013,50.308697 32.82994,79.632407 1.03426,9.02659 1.13961,24.02025 0.23215,33.03141 -4.74377,47.10513 -30.01884,88.90571 -69.60207,115.10967 -22.25958,14.73579 -48.92787,23.72225 -75.29994,25.37398 -4.67471,0.29278 -17.23036,0.27895 -22.0669,-0.0243 z"
         id="path98" />
      <path
         style="fill:#b7b7c5;stroke-width:0.245188"
         d="M 156.58357,328.18177 C 149.9974,327.7688 141.30334,326.47573 133.70796,324.77945 110.47976,319.59184 88.821064,309.20887 70.522628,294.48901 62.605674,288.12036 58.403804,284.13304 50.644407,275.62575 44.778521,269.1945 37.074328,258.44652 32.309463,250.04702 19.985914,228.32307 13.166304,205.12556 11.896935,180.61198 c -0.303058,-5.85253 -0.1668,-16.56049 0.276119,-21.69913 2.009204,-23.31033 9.473175,-46.62248 21.274328,-66.445909 C 48.299828,67.517986 70.246672,46.7471 95.654384,33.593114 113.39777,24.407075 131.46556,18.99238 152.17019,16.656019 c 4.86254,-0.548701 25.50012,-0.633227 30.40329,-0.124524 34.71055,3.601211 65.44513,17.183885 90.59691,40.037916 6.1541,5.591887 12.3737,12.231339 17.32,18.489192 18.24659,23.084835 29.47013,50.308697 32.82994,79.632407 1.03426,9.02659 1.13961,24.02025 0.23215,33.03141 -4.74377,47.10513 -30.01884,88.90571 -69.60207,115.10967 -22.25958,14.73579 -48.92787,23.72225 -75.29994,25.37398 -4.67471,0.29278 -17.23036,0.27895 -22.0669,-0.0243 z m -1.20736,-194.16496 c 1.47049,-0.7502 1.51956,-1.86202 0.14858,-3.36681 l -0.50713,-0.55662 0.56917,-2.95405 c 0.56857,-2.95095 0.57017,-2.95469 1.5274,-3.55896 1.07485,-0.67853 1.91892,-1.89044 1.9203,-2.75718 0.003,-1.59961 -1.55498,-3.22173 -3.09521,-3.22358 -1.04167,-0.001 -1.41535,-0.51499 -1.22777,-1.68802 0.20073,-1.2553 -0.50993,-2.2359 -1.6204,-2.2359 -2.08908,0 -2.28968,2.675 -0.24727,3.29738 0.74961,0.22843 0.98044,1.24296 0.42296,1.85896 -0.24999,0.27624 -0.48234,1.02242 -0.55045,1.76773 -0.0648,0.70935 -0.22845,1.42849 -0.36362,1.5981 -0.13517,0.1696 -1.32817,1.25104 -2.65111,2.40319 l -2.40534,2.09481 -1.057,-0.54832 c -1.98081,-1.02755 -5.0957,-0.46477 -5.30267,0.95805 -0.0948,0.65143 0.89012,2.66469 1.94683,3.97963 0.95299,1.18586 3.09018,2.69588 3.8156,2.69588 0.65799,0 1.45454,-0.97936 1.83827,-2.26014 0.22566,-0.75319 0.22201,-1.29676 -0.0165,-2.45135 -0.16853,-0.81596 -0.21631,-1.56592 -0.10617,-1.66658 2.19096,-2.00242 4.83241,-4.16501 5.08729,-4.16501 0.1816,0 0.57493,0.19818 0.87406,0.4404 l 0.54388,0.44041 -0.41213,2.07277 c -0.71871,3.61469 -0.80013,3.8247 -1.61344,4.16158 -1.0201,0.42254 -1.45974,1.13908 -1.45974,2.37913 0,1.48209 0.68578,2.13938 2.01102,1.92747 0.53693,-0.0859 1.40568,-0.3752 1.93057,-0.64297 z"
         id="path96" />
      <path
         style="fill:#9898ac;stroke-width:0.245188"
         d="m 160.99695,328.06629 c -50.138,-2.44028 -95.244986,-27.96326 -123.017368,-69.60717 -12.76694,-19.14367 -21.406684,-41.98795 -24.4365,-64.61236 -1.192885,-8.90758 -1.25257,-9.94129 -1.25257,-21.69376 0,-9.24275 0.07964,-11.98679 0.441201,-15.20165 2.238397,-19.90304 6.859722,-36.16309 15.121791,-53.20577 C 42.367093,73.807525 67.090363,48.564562 96.635135,33.518136 114.56426,24.387273 132.66483,19.10117 153.39612,16.941616 c 5.07811,-0.528981 17.95081,-0.734656 23.75332,-0.379521 49.15407,3.008403 93.40992,28.404936 120.64309,69.231897 14.93532,22.390488 23.95394,48.852998 25.7472,75.547498 0.32941,4.90384 0.33549,17.0356 0.0108,21.72237 -2.18838,31.59532 -14.17211,62.24872 -33.93246,86.7965 -10.78471,13.3976 -24.46151,25.60727 -38.51465,34.38318 -21.56741,13.46844 -44.98361,21.25254 -70.6141,23.47382 -3.07529,0.26652 -16.31588,0.50354 -19.49244,0.34893 z m -5.62074,-194.04948 c 1.47049,-0.7502 1.51956,-1.86202 0.14858,-3.36681 l -0.50713,-0.55662 0.56917,-2.95405 c 0.56857,-2.95095 0.57017,-2.95469 1.5274,-3.55896 1.07485,-0.67853 1.91892,-1.89044 1.9203,-2.75718 0.003,-1.59961 -1.55498,-3.22173 -3.09521,-3.22358 -1.04167,-0.001 -1.41535,-0.51499 -1.22777,-1.68802 0.20073,-1.2553 -0.50993,-2.2359 -1.6204,-2.2359 -2.08908,0 -2.28968,2.675 -0.24727,3.29738 0.74961,0.22843 0.98044,1.24296 0.42296,1.85896 -0.24999,0.27624 -0.48234,1.02242 -0.55045,1.76773 -0.0648,0.70935 -0.22845,1.42849 -0.36362,1.5981 -0.13517,0.1696 -1.32817,1.25104 -2.65111,2.40319 l -2.40534,2.09481 -1.057,-0.54832 c -1.98081,-1.02755 -5.0957,-0.46477 -5.30267,0.95805 -0.0948,0.65143 0.89012,2.66469 1.94683,3.97963 0.95299,1.18586 3.09018,2.69588 3.8156,2.69588 0.65799,0 1.45454,-0.97936 1.83827,-2.26014 0.22566,-0.75319 0.22201,-1.29676 -0.0165,-2.45135 -0.16853,-0.81596 -0.21631,-1.56592 -0.10617,-1.66658 2.19096,-2.00242 4.83241,-4.16501 5.08729,-4.16501 0.1816,0 0.57493,0.19818 0.87406,0.4404 l 0.54388,0.44041 -0.41213,2.07277 c -0.71871,3.61469 -0.80013,3.8247 -1.61344,4.16158 -1.0201,0.42254 -1.45974,1.13908 -1.45974,2.37913 0,1.48209 0.68578,2.13938 2.01102,1.92747 0.53693,-0.0859 1.40568,-0.3752 1.93057,-0.64297 z"
         id="path94" />
      <path
         style="fill:#53b4a1;stroke-width:0.245188"
         d="m 160.0162,327.80938 c -10.72699,-0.7274 -18.46265,-1.83094 -27.46104,-3.91742 C 107.00375,317.96725 83.439171,305.70086 64.02515,288.21912 52.331673,277.6895 42.351519,265.63021 34.424625,252.45202 14.701597,219.66315 7.7087022,179.74907 15.137115,142.36267 22.709179,104.25329 43.517895,70.928686 74.077852,47.970663 95.42095,31.93676 119.664,21.849433 145.91789,18.078627 c 8.45916,-1.214976 11.02768,-1.374808 22.06691,-1.373162 10.42047,0.0015 11.69246,0.06756 19.24725,0.998848 39.05492,4.814327 75.06691,24.448077 100.25163,54.657224 22.2249,26.658842 34.88886,59.664643 36.05173,93.960883 0.49146,14.49461 -0.77401,27.85916 -3.91503,41.34672 -8.39933,36.06671 -29.39332,67.93982 -59.32235,90.06332 -23.82337,17.6102 -52.93155,28.11064 -83.11868,29.98407 -3.63652,0.22569 -14.34966,0.28366 -17.16315,0.0928 z m -4.63999,-193.79257 c 1.47049,-0.7502 1.51956,-1.86202 0.14858,-3.36681 l -0.50713,-0.55662 0.56917,-2.95405 c 0.56857,-2.95095 0.57017,-2.95469 1.5274,-3.55896 1.07485,-0.67853 1.91892,-1.89044 1.9203,-2.75718 0.003,-1.59961 -1.55498,-3.22173 -3.09521,-3.22358 -1.04167,-0.001 -1.41535,-0.51499 -1.22777,-1.68802 0.20073,-1.2553 -0.50993,-2.2359 -1.6204,-2.2359 -2.08908,0 -2.28968,2.675 -0.24727,3.29738 0.74961,0.22843 0.98044,1.24296 0.42296,1.85896 -0.24999,0.27624 -0.48234,1.02242 -0.55045,1.76773 -0.0648,0.70935 -0.22845,1.42849 -0.36362,1.5981 -0.13517,0.1696 -1.32817,1.25104 -2.65111,2.40319 l -2.40534,2.09481 -1.057,-0.54832 c -1.98081,-1.02755 -5.0957,-0.46477 -5.30267,0.95805 -0.0948,0.65143 0.89012,2.66469 1.94683,3.97963 0.95299,1.18586 3.09018,2.69588 3.8156,2.69588 0.65799,0 1.45454,-0.97936 1.83827,-2.26014 0.22566,-0.75319 0.22201,-1.29676 -0.0165,-2.45135 -0.16853,-0.81596 -0.21631,-1.56592 -0.10617,-1.66658 2.19096,-2.00242 4.83241,-4.16501 5.08729,-4.16501 0.1816,0 0.57493,0.19818 0.87406,0.4404 l 0.54388,0.44041 -0.41213,2.07277 c -0.71871,3.61469 -0.80013,3.8247 -1.61344,4.16158 -1.0201,0.42254 -1.45974,1.13908 -1.45974,2.37913 0,1.48209 0.68578,2.13938 2.01102,1.92747 0.53693,-0.0859 1.40568,-0.3752 1.93057,-0.64297 z"
         id="path92" />
      <path
         style="fill:#00e5c2;stroke-width:0.245188"
         d="m 160.0162,327.80938 c -10.72699,-0.7274 -18.46265,-1.83094 -27.46104,-3.91742 C 107.00375,317.96725 83.439171,305.70086 64.02515,288.21912 52.331673,277.6895 42.351519,265.63021 34.424625,252.45202 14.701597,219.66315 7.7087022,179.74907 15.137115,142.36267 22.709179,104.25329 43.517895,70.928686 74.077852,47.970663 95.42095,31.93676 119.664,21.849433 145.91789,18.078627 c 8.45916,-1.214976 11.02768,-1.374808 22.06691,-1.373162 10.42047,0.0015 11.69246,0.06756 19.24725,0.998848 39.05492,4.814327 75.06691,24.448077 100.25163,54.657224 22.2249,26.658842 34.88886,59.664643 36.05173,93.960883 0.49146,14.49461 -0.77401,27.85916 -3.91503,41.34672 -8.39933,36.06671 -29.39332,67.93982 -59.32235,90.06332 -23.82337,17.6102 -52.93155,28.11064 -83.11868,29.98407 -3.63652,0.22569 -14.34966,0.28366 -17.16315,0.0928 z m -4.65857,-193.47067 c 2.43944,-1.20601 5.0514,-3.9379 5.92491,-6.19693 0.79075,-2.04502 0.89101,-5.15177 0.23588,-7.30866 -0.93104,-3.06523 -3.02227,-5.3282 -6.31832,-6.83718 -2.48123,-1.13594 -5.90565,-1.00231 -8.66924,0.33831 -1.8065,0.87634 -4.37739,3.4756 -5.29015,5.34854 -0.68026,1.39585 -0.71695,1.63423 -0.71695,4.65857 0,2.94484 0.05,3.29416 0.65712,4.58945 0.77875,1.6615 2.57636,3.66031 4.08925,4.54692 2.62661,1.5393 7.81901,1.98248 10.0875,0.86098 z"
         id="path90" />
      <path
         style="fill:#09c8ad;stroke-width:0.245188"
         d="m 160.0162,327.80938 c -10.72699,-0.7274 -18.46265,-1.83094 -27.46104,-3.91742 C 107.00375,317.96725 83.439171,305.70086 64.02515,288.21912 52.331673,277.6895 42.351519,265.63021 34.424625,252.45202 14.701597,219.66315 7.7087022,179.74907 15.137115,142.36267 22.709179,104.25329 43.517895,70.928686 74.077852,47.970663 95.42095,31.93676 119.664,21.849433 145.91789,18.078627 c 8.45916,-1.214976 11.02768,-1.374808 22.06691,-1.373162 10.42047,0.0015 11.69246,0.06756 19.24725,0.998848 39.05492,4.814327 75.06691,24.448077 100.25163,54.657224 22.2249,26.658842 34.88886,59.664643 36.05173,93.960883 0.49146,14.49461 -0.77401,27.85916 -3.91503,41.34672 -8.39933,36.06671 -29.39332,67.93982 -59.32235,90.06332 -23.82337,17.6102 -52.93155,28.11064 -83.11868,29.98407 -3.63652,0.22569 -14.34966,0.28366 -17.16315,0.0928 z M 135.31429,174.1758 c 0.45675,-0.57313 1.36741,-1.81439 2.02369,-2.75837 2.82195,-4.05899 9.117,-11.15518 13.54243,-15.26589 1.55892,-1.44805 3.83958,-3.57067 5.06815,-4.71692 5.65335,-5.27456 7.98125,-7.01691 20.12744,-15.06459 9.8904,-6.55307 11.59697,-7.62957 20.10541,-12.68252 12.71701,-7.55232 22.11564,-14.57438 29.79639,-22.26197 10.48268,-10.492023 14.94556,-19.289388 14.9494,-29.468717 0.001,-3.016461 -0.67152,-7.31149 -1.57844,-10.078563 -1.73039,-5.279546 -5.64287,-10.845598 -10.21521,-14.532586 -2.68394,-2.164251 -10.24168,-6.603095 -10.61205,-6.232724 -0.0615,0.06152 0.0925,0.969735 0.34234,2.018252 0.78252,3.28446 1.04858,7.160157 0.90997,13.255755 -0.14155,6.225212 -0.43159,8.449081 -1.76368,13.522701 -1.86381,7.098849 -4.54154,13.431335 -7.66237,18.12057 -4.3801,6.581362 -14.68242,18.181532 -21.60935,24.331642 -2.50182,2.22125 -4.03158,3.85695 -6.48098,6.92983 -3.75069,4.70538 -12.15311,13.26379 -19.65199,20.0168 -10.1804,9.16781 -19.58837,18.06965 -28.70175,27.15768 -7.70846,7.68701 -7.51603,7.3336 -3.91033,7.1814 1.64567,-0.0695 1.89784,-0.0217 2.15167,0.4072 0.27837,0.4704 1.45681,1.13388 2.04873,1.15347 0.15954,0.005 0.66377,-0.45933 1.12053,-1.03245 z m 20.04334,-39.83709 c 2.43944,-1.20601 5.0514,-3.9379 5.92491,-6.19693 0.79075,-2.04502 0.89101,-5.15177 0.23588,-7.30866 -0.93104,-3.06523 -3.02227,-5.3282 -6.31832,-6.83718 -2.48123,-1.13594 -5.90565,-1.00231 -8.66924,0.33831 -1.8065,0.87634 -4.37739,3.4756 -5.29015,5.34854 -0.68026,1.39585 -0.71695,1.63423 -0.71695,4.65857 0,2.94484 0.05,3.29416 0.65712,4.58945 0.77875,1.6615 2.57636,3.66031 4.08925,4.54692 2.62661,1.5393 7.81901,1.98248 10.0875,0.86098 z"
         id="path88" />
      <path
         style="fill:#6a708b;stroke-width:0.245188"
         d="m 160.0162,327.80938 c -10.72699,-0.7274 -18.46265,-1.83094 -27.46104,-3.91742 C 107.00375,317.96725 83.439171,305.70086 64.02515,288.21912 52.331673,277.6895 42.351519,265.63021 34.424625,252.45202 14.701597,219.66315 7.7087022,179.74907 15.137115,142.36267 22.709179,104.25329 43.517895,70.928686 74.077852,47.970663 95.42095,31.93676 119.664,21.849433 145.91789,18.078627 c 8.45916,-1.214976 11.02768,-1.374808 22.06691,-1.373162 10.42047,0.0015 11.69246,0.06756 19.24725,0.998848 39.05492,4.814327 75.06691,24.448077 100.25163,54.657224 22.2249,26.658842 34.88886,59.664643 36.05173,93.960883 0.49146,14.49461 -0.77401,27.85916 -3.91503,41.34672 -8.39933,36.06671 -29.39332,67.93982 -59.32235,90.06332 -23.82337,17.6102 -52.93155,28.11064 -83.11868,29.98407 -3.63652,0.22569 -14.34966,0.28366 -17.16315,0.0928 z M 122.87024,182.32829 c 0.0833,-0.13485 -0.0205,-0.24519 -0.23072,-0.24519 -0.21024,0 -0.38225,0.11034 -0.38225,0.24519 0,0.13486 0.10382,0.24519 0.23071,0.24519 0.1269,0 0.29891,-0.11033 0.38226,-0.24519 z m 2.99844,-1.12888 c -0.0815,-0.0815 -0.29295,-0.0902 -0.46994,-0.0194 -0.1956,0.0783 -0.1375,0.13637 0.14813,0.14813 0.25847,0.0106 0.40328,-0.0473 0.32181,-0.12877 z m 4.1962,-0.95018 1.55532,-0.0959 3.55996,-5.10352 c 1.95798,-2.80693 4.58323,-6.37236 5.83388,-7.92318 2.62349,-3.25315 9.09414,-10.24918 10.68576,-11.55339 0.59585,-0.48825 2.46254,-2.18162 4.1482,-3.76304 1.68567,-1.58143 4.4992,-4.03437 6.25229,-5.45098 3.21059,-2.59437 22.34493,-15.4892 27.58364,-18.58891 15.57669,-9.21661 21.64876,-13.30689 29.68129,-19.99396 3.69955,-3.07988 9.81912,-9.152876 12.09139,-11.999382 8.07908,-10.120767 10.92893,-19.095971 9.22613,-29.056326 -1.53656,-8.987905 -6.36582,-16.287011 -14.23308,-21.512381 -4.34199,-2.883914 -6.03737,-3.74214 -11.0308,-5.583957 -6.05857,-2.234696 -16.22636,-3.208778 -24.3864,-2.336243 -6.93028,0.741043 -14.55624,2.565408 -20.59578,4.92715 -5.02519,1.965083 -11.50819,5.278155 -15.35997,7.849555 -3.60235,2.404883 -7.81028,5.644759 -7.81028,6.013485 0,0.12291 0.80282,0.223471 1.78404,0.223471 5.57452,0 13.67007,1.900964 19.83539,4.657657 6.59892,2.950576 14.02739,8.258501 18.25731,13.045561 6.44343,7.292118 9.14518,15.449815 7.81971,23.610937 -0.6691,4.119773 -1.85853,6.677043 -5.01298,10.777843 -1.04174,1.35427 -2.29495,3.13027 -2.7849,3.94669 -0.48997,0.8164 -1.61959,2.41626 -2.51027,3.55522 -0.89069,1.13896 -2.29985,2.95352 -3.13147,4.03234 -1.66908,2.16522 -10.04634,10.88189 -14.12245,14.69462 -1.4319,1.33937 -4.87158,4.48391 -7.64374,6.98785 -8.77427,7.92533 -21.66084,20.18347 -29.71748,28.26826 -6.88761,6.91167 -7.75734,7.86993 -7.52942,8.29581 0.14173,0.26483 0.22556,0.64525 0.18629,0.84538 -0.0393,0.20014 0.25959,0.63672 0.66415,0.97018 0.79381,0.6543 0.48713,0.64245 6.70427,0.25915 z m 25.29275,-45.91052 c 2.43944,-1.20601 5.0514,-3.9379 5.92491,-6.19693 0.79075,-2.04502 0.89101,-5.15177 0.23588,-7.30866 -0.93104,-3.06523 -3.02227,-5.3282 -6.31832,-6.83718 -2.48123,-1.13594 -5.90565,-1.00231 -8.66924,0.33831 -1.8065,0.87634 -4.37739,3.4756 -5.29015,5.34854 -0.68026,1.39585 -0.71695,1.63423 -0.71695,4.65857 0,2.94484 0.05,3.29416 0.65712,4.58945 0.77875,1.6615 2.57636,3.66031 4.08925,4.54692 2.62661,1.5393 7.81901,1.98248 10.0875,0.86098 z"
         id="path86" />
      <path
         style="fill:#00d28c;stroke-width:0.245188"
         d="m 156.07519,327.35966 c -20.51735,-1.79922 -38.4804,-6.67004 -56.00742,-15.18687 C 81.739051,303.26642 66.240221,291.62686 52.467281,276.42502 22.733755,243.6067 8.4481785,199.18955 13.410939,154.98985 17.548226,118.14203 34.28248,84.559981 61.165499,59.156702 85.491013,36.170154 116.09788,21.844742 149.47312,17.824697 c 7.14467,-0.860576 10.74704,-1.065528 18.63428,-1.060173 9.62258,0.0065 15.99493,0.522755 25.25435,2.045845 29.25183,4.811665 56.14821,17.667792 78.15198,37.355681 31.08073,27.809474 49.35855,65.87674 51.78924,107.86165 1.43595,24.80281 -3.64721,50.91262 -14.44622,74.20342 -14.21065,30.64888 -38.97173,56.42308 -69.27709,72.11164 -17.47678,9.04743 -35.59141,14.43568 -56.02543,16.66493 -6.18506,0.67476 -21.55342,0.87162 -27.47904,0.35197 z M 122.87024,182.32829 c 0.0833,-0.13485 -0.0205,-0.24519 -0.23072,-0.24519 -0.21024,0 -0.38225,0.11034 -0.38225,0.24519 0,0.13486 0.10382,0.24519 0.23071,0.24519 0.1269,0 0.29891,-0.11033 0.38226,-0.24519 z m 2.99844,-1.12888 c -0.0815,-0.0815 -0.29295,-0.0902 -0.46994,-0.0194 -0.1956,0.0783 -0.1375,0.13637 0.14813,0.14813 0.25847,0.0106 0.40328,-0.0473 0.32181,-0.12877 z m 4.1962,-0.95018 1.55532,-0.0959 3.55996,-5.10352 c 1.95798,-2.80693 4.58323,-6.37236 5.83388,-7.92318 2.62349,-3.25315 9.09414,-10.24918 10.68576,-11.55339 0.59585,-0.48825 2.46254,-2.18162 4.1482,-3.76304 1.68567,-1.58143 4.4992,-4.03437 6.25229,-5.45098 3.21059,-2.59437 22.34493,-15.4892 27.58364,-18.58891 15.57669,-9.21661 21.64876,-13.30689 29.68129,-19.99396 3.69955,-3.07988 9.81912,-9.152876 12.09139,-11.999382 8.07908,-10.120767 10.92893,-19.095971 9.22613,-29.056326 -1.53656,-8.987905 -6.36582,-16.287011 -14.23308,-21.512381 -4.34199,-2.883914 -6.03737,-3.74214 -11.0308,-5.583957 -6.05857,-2.234696 -16.22636,-3.208778 -24.3864,-2.336243 -6.93028,0.741043 -14.55624,2.565408 -20.59578,4.92715 -5.02519,1.965083 -11.50819,5.278155 -15.35997,7.849555 -3.60235,2.404883 -7.81028,5.644759 -7.81028,6.013485 0,0.12291 0.80282,0.223471 1.78404,0.223471 5.57452,0 13.67007,1.900964 19.83539,4.657657 6.59892,2.950576 14.02739,8.258501 18.25731,13.045561 6.44343,7.292118 9.14518,15.449815 7.81971,23.610937 -0.6691,4.119773 -1.85853,6.677043 -5.01298,10.777843 -1.04174,1.35427 -2.29495,3.13027 -2.7849,3.94669 -0.48997,0.8164 -1.61959,2.41626 -2.51027,3.55522 -0.89069,1.13896 -2.29985,2.95352 -3.13147,4.03234 -1.66908,2.16522 -10.04634,10.88189 -14.12245,14.69462 -1.4319,1.33937 -4.87158,4.48391 -7.64374,6.98785 -8.77427,7.92533 -21.66084,20.18347 -29.71748,28.26826 -6.88761,6.91167 -7.75734,7.86993 -7.52942,8.29581 0.14173,0.26483 0.22556,0.64525 0.18629,0.84538 -0.0393,0.20014 0.25959,0.63672 0.66415,0.97018 0.79381,0.6543 0.48713,0.64245 6.70427,0.25915 z m 25.77854,-46.10575 c 1.8867,-1.02505 4.43799,-3.60968 5.22825,-5.29657 0.3553,-0.75843 0.77372,-2.15236 0.92983,-3.09762 0.77399,-4.68668 -1.91795,-9.59493 -6.39868,-11.6668 -2.12869,-0.9843 -5.24743,-1.17689 -7.50378,-0.46338 -5.07471,1.60474 -8.321,6.49927 -7.82273,11.79456 0.25413,2.70066 1.21819,4.76447 3.10875,6.65503 2.16126,2.16126 4.48969,2.95395 8.41734,2.86561 2.46771,-0.0555 2.81136,-0.12275 4.04102,-0.79083 z"
         id="path84" />
      <path
         style="fill:#70e100;stroke-width:0.245188"
         d="m 156.07519,327.35966 c -20.51735,-1.79922 -38.4804,-6.67004 -56.00742,-15.18687 C 81.739051,303.26642 66.240221,291.62686 52.467281,276.42502 22.733755,243.6067 8.4481785,199.18955 13.410939,154.98985 17.548226,118.14203 34.28248,84.559981 61.165499,59.156702 85.491013,36.170154 116.09788,21.844742 149.47312,17.824697 c 7.14467,-0.860576 10.74704,-1.065528 18.63428,-1.060173 9.62258,0.0065 15.99493,0.522755 25.25435,2.045845 29.25183,4.811665 56.14821,17.667792 78.15198,37.355681 31.08073,27.809474 49.35855,65.87674 51.78924,107.86165 1.43595,24.80281 -3.64721,50.91262 -14.44622,74.20342 -14.21065,30.64888 -38.97173,56.42308 -69.27709,72.11164 -17.47678,9.04743 -35.59141,14.43568 -56.02543,16.66493 -6.18506,0.67476 -21.55342,0.87162 -27.47904,0.35197 z m -40.3154,-116.4865 c 1.02906,-0.24777 3.44926,-2.20027 3.87889,-3.1293 0.19691,-0.4258 0.54128,-1.41739 0.76526,-2.20354 0.53463,-1.87644 3.33786,-9.04224 4.19788,-10.73088 0.37117,-0.72881 1.75383,-3.62316 3.07257,-6.43189 1.31874,-2.80873 3.08175,-6.28427 3.91779,-7.72342 1.98755,-3.4213 6.36371,-9.70917 9.32941,-13.40489 2.66238,-3.31776 9.13498,-10.32949 10.77821,-11.67599 0.59585,-0.48825 2.46254,-2.18162 4.1482,-3.76304 1.68567,-1.58143 4.4992,-4.03437 6.25229,-5.45098 3.21059,-2.59437 22.34493,-15.4892 27.58364,-18.58891 15.57669,-9.21661 21.64876,-13.30689 29.68129,-19.99396 3.69955,-3.07988 9.81912,-9.152876 12.09139,-11.999382 8.07908,-10.120767 10.92893,-19.095971 9.22613,-29.056326 -1.53656,-8.987905 -6.36582,-16.287011 -14.23308,-21.512381 -4.34199,-2.883914 -6.03737,-3.74214 -11.0308,-5.583957 -6.05857,-2.234696 -16.22636,-3.208778 -24.3864,-2.336243 -6.93028,0.741043 -14.55624,2.565408 -20.59578,4.92715 -5.02519,1.965083 -11.50819,5.278155 -15.35997,7.849555 -3.60235,2.404883 -7.81028,5.644759 -7.81028,6.013485 0,0.12291 0.80282,0.223471 1.78404,0.223471 5.57452,0 13.67007,1.900964 19.83539,4.657657 6.59892,2.950576 14.02739,8.258501 18.25731,13.045561 6.44343,7.292118 9.14518,15.449815 7.81971,23.610937 -0.6691,4.119773 -1.85853,6.677043 -5.01298,10.777843 -1.04174,1.35427 -2.29495,3.13027 -2.7849,3.94669 -0.48997,0.8164 -1.61959,2.41626 -2.51027,3.55522 -0.89069,1.13896 -2.29985,2.95352 -3.13147,4.03234 -1.66908,2.16522 -10.04634,10.88189 -14.12245,14.69462 -1.4319,1.33937 -4.87158,4.48391 -7.64374,6.98785 -8.49931,7.67698 -21.53576,20.06313 -29.67742,28.19702 -4.26087,4.25681 -9.78043,9.72568 -12.26568,12.15304 -4.66922,4.56046 -11.71446,12.69612 -12.40216,14.32169 -0.20474,0.48397 -0.76716,1.70747 -1.24981,2.71887 -1.17056,2.45292 -1.33767,4.27281 -0.48355,5.2658 0.44346,0.51554 0.8064,0.68974 1.40185,0.67281 0.59648,-0.017 0.83505,0.0979 0.92608,0.44604 0.0963,0.36836 0.21824,0.41772 0.56861,0.2302 0.36199,-0.19373 0.58778,-0.0667 1.19887,0.6747 0.41409,0.50235 0.75289,1.03502 0.75289,1.1837 0,0.36267 2.32499,2.87574 2.73812,2.95963 0.1797,0.0365 0.76806,0.23714 1.30748,0.4459 0.94875,0.36718 1.64065,0.36573 3.18744,-0.007 z m 40.08363,-76.72968 c 1.8867,-1.02505 4.43799,-3.60968 5.22825,-5.29657 0.3553,-0.75843 0.77372,-2.15236 0.92983,-3.09762 0.77399,-4.68668 -1.91795,-9.59493 -6.39868,-11.6668 -2.12869,-0.9843 -5.24743,-1.17689 -7.50378,-0.46338 -5.07471,1.60474 -8.321,6.49927 -7.82273,11.79456 0.25413,2.70066 1.21819,4.76447 3.10875,6.65503 2.16126,2.16126 4.48969,2.95395 8.41734,2.86561 2.46771,-0.0555 2.81136,-0.12275 4.04102,-0.79083 z"
         id="path82" />
      <path
         style="fill:#04aa9a;stroke-width:0.245188"
         d="m 156.07519,327.35966 c -20.51735,-1.79922 -38.4804,-6.67004 -56.00742,-15.18687 C 81.739051,303.26642 66.240221,291.62686 52.467281,276.42502 22.733755,243.6067 8.4481785,199.18955 13.410939,154.98985 17.548226,118.14203 34.28248,84.559981 61.165499,59.156702 85.491013,36.170154 116.09788,21.844742 149.47312,17.824697 c 7.14467,-0.860576 10.74704,-1.065528 18.63428,-1.060173 9.62258,0.0065 15.99493,0.522755 25.25435,2.045845 29.25183,4.811665 56.14821,17.667792 78.15198,37.355681 31.08073,27.809474 49.35855,65.87674 51.78924,107.86165 1.43595,24.80281 -3.64721,50.91262 -14.44622,74.20342 -14.21065,30.64888 -38.97173,56.42308 -69.27709,72.11164 -17.47678,9.04743 -35.59141,14.43568 -56.02543,16.66493 -6.18506,0.67476 -21.55342,0.87162 -27.47904,0.35197 z m -40.3154,-116.4865 c 1.02906,-0.24777 3.44926,-2.20027 3.87889,-3.1293 0.19691,-0.4258 0.54128,-1.41739 0.76526,-2.20354 0.53463,-1.87644 3.33786,-9.04224 4.19788,-10.73088 0.37117,-0.72881 1.75383,-3.62316 3.07257,-6.43189 1.31874,-2.80873 3.08175,-6.28427 3.91779,-7.72342 1.98755,-3.4213 6.36371,-9.70917 9.32941,-13.40489 2.66238,-3.31776 9.13498,-10.32949 10.77821,-11.67599 0.59585,-0.48825 2.46254,-2.18162 4.1482,-3.76304 1.68567,-1.58143 4.4992,-4.03437 6.25229,-5.45098 3.21059,-2.59437 22.34493,-15.4892 27.58364,-18.58891 15.57669,-9.21661 21.64876,-13.30689 29.68129,-19.99396 3.69955,-3.07988 9.81912,-9.152876 12.09139,-11.999382 8.07908,-10.120767 10.92893,-19.095971 9.22613,-29.056326 -1.53656,-8.987905 -6.36582,-16.287011 -14.23308,-21.512381 -4.34199,-2.883914 -6.03737,-3.74214 -11.0308,-5.583957 -6.05857,-2.234696 -16.22636,-3.208778 -24.3864,-2.336243 -6.93028,0.741043 -14.55624,2.565408 -20.59578,4.92715 -5.02519,1.965083 -11.50819,5.278155 -15.35997,7.849555 -3.60235,2.404883 -7.81028,5.644759 -7.81028,6.013485 0,0.12291 0.80282,0.223471 1.78404,0.223471 5.57452,0 13.67007,1.900964 19.83539,4.657657 6.59892,2.950576 14.02739,8.258501 18.25731,13.045561 6.44343,7.292118 9.14518,15.449815 7.81971,23.610937 -0.6691,4.119773 -1.85853,6.677043 -5.01298,10.777843 -1.04174,1.35427 -2.29495,3.13027 -2.7849,3.94669 -0.48997,0.8164 -1.61959,2.41626 -2.51027,3.55522 -0.89069,1.13896 -2.29985,2.95352 -3.13147,4.03234 -1.66908,2.16522 -10.04634,10.88189 -14.12245,14.69462 -1.4319,1.33937 -4.87158,4.48391 -7.64374,6.98785 -8.49931,7.67698 -21.53576,20.06313 -29.67742,28.19702 -4.26087,4.25681 -9.78043,9.72568 -12.26568,12.15304 -4.66922,4.56046 -11.71446,12.69612 -12.40216,14.32169 -0.20474,0.48397 -0.76716,1.70747 -1.24981,2.71887 -1.17056,2.45292 -1.33767,4.27281 -0.48355,5.2658 0.44346,0.51554 0.8064,0.68974 1.40185,0.67281 0.59648,-0.017 0.83505,0.0979 0.92608,0.44604 0.0963,0.36836 0.21824,0.41772 0.56861,0.2302 0.36199,-0.19373 0.58778,-0.0667 1.19887,0.6747 0.41409,0.50235 0.75289,1.03502 0.75289,1.1837 0,0.36267 2.32499,2.87574 2.73812,2.95963 0.1797,0.0365 0.76806,0.23714 1.30748,0.4459 0.94875,0.36718 1.64065,0.36573 3.18744,-0.007 z m 131.68728,-40.55907 c -0.25112,-9.47793 -1.84545,-16.65239 -5.19003,-23.35512 -2.33605,-4.68155 -4.46592,-7.6034 -6.96817,-9.55926 -2.39048,-1.86849 -4.26068,-2.35612 -5.4496,-1.42092 -0.68785,0.54106 -1.47743,2.22315 -2.0183,4.29966 -0.58984,2.26455 -2.14145,10.92517 -2.01593,11.25228 0.0636,0.16574 0.54089,0.43205 1.06062,0.59179 1.67772,0.51566 6.2073,4.89064 10.31448,9.96246 4.85824,5.99927 8.7857,13.73972 9.45394,18.6323 l 0.29901,2.18939 0.32033,-3.90571 c 0.19763,-2.40963 0.27179,-5.73714 0.19365,-8.68687 z m 7.85653,-29.32215 c -0.74863,-4.28833 -2.94622,-9.53629 -5.61647,-13.41249 -1.8571,-2.69581 -5.04543,-6.07213 -6.46222,-6.84324 -1.51351,-0.82376 -3.75465,-1.20678 -5.33433,-0.91166 -1.34952,0.25212 -3.81799,1.6636 -4.56074,2.60785 -0.54915,0.69814 -1.41212,3.36996 -1.52507,4.72173 -0.0702,0.83984 -0.0558,0.85351 1.07369,1.01888 1.78436,0.26127 3.72834,0.88156 7.27173,2.32026 4.97463,2.01982 7.52785,3.59727 11.35219,7.01373 1.70148,1.52001 2.30001,2.2486 3.05997,3.72488 0.51963,1.00939 0.97516,1.80483 1.01236,1.76766 0.0372,-0.0372 -0.0848,-0.94059 -0.27111,-2.0076 z m -99.46018,-6.84846 c 1.8867,-1.02505 4.43799,-3.60968 5.22825,-5.29657 0.3553,-0.75843 0.77372,-2.15236 0.92983,-3.09762 0.77399,-4.68668 -1.91795,-9.59493 -6.39868,-11.6668 -2.12869,-0.9843 -5.24743,-1.17689 -7.50378,-0.46338 -5.07471,1.60474 -8.321,6.49927 -7.82273,11.79456 0.25413,2.70066 1.21819,4.76447 3.10875,6.65503 2.16126,2.16126 4.48969,2.95395 8.41734,2.86561 2.46771,-0.0555 2.81136,-0.12275 4.04102,-0.79083 z"
         id="path80" />
      <path
         style="fill:#08c966;stroke-width:0.245188"
         d="m 156.07519,327.35966 c -20.51735,-1.79922 -38.4804,-6.67004 -56.00742,-15.18687 C 81.739051,303.26642 66.240221,291.62686 52.467281,276.42502 22.733755,243.6067 8.4481785,199.18955 13.410939,154.98985 17.548226,118.14203 34.28248,84.559981 61.165499,59.156702 85.491013,36.170154 116.09788,21.844742 149.47312,17.824697 c 7.14467,-0.860576 10.74704,-1.065528 18.63428,-1.060173 9.62258,0.0065 15.99493,0.522755 25.25435,2.045845 29.25183,4.811665 56.14821,17.667792 78.15198,37.355681 31.08073,27.809474 49.35855,65.87674 51.78924,107.86165 1.43595,24.80281 -3.64721,50.91262 -14.44622,74.20342 -14.21065,30.64888 -38.97173,56.42308 -69.27709,72.11164 -17.47678,9.04743 -35.59141,14.43568 -56.02543,16.66493 -6.18506,0.67476 -21.55342,0.87162 -27.47904,0.35197 z m -40.3154,-116.4865 c 1.02906,-0.24777 3.44926,-2.20027 3.87889,-3.1293 0.19691,-0.4258 0.53813,-1.40655 0.75826,-2.17944 1.23256,-4.32757 7.55455,-18.07377 11.32458,-24.62355 1.96044,-3.40593 6.4986,-9.95918 9.57961,-13.83325 4.13965,-5.20521 14.95485,-15.78066 21.65732,-21.17723 2.87713,-2.31655 24.52671,-16.68573 29.17736,-19.36548 15.72721,-9.06221 26.86272,-17.28083 35.43951,-26.15635 4.72842,-4.893095 8.01075,-9.41328 10.53511,-14.508169 2.36101,-4.765194 3.49239,-10.092984 3.23857,-15.250743 -0.52764,-10.721935 -5.73321,-19.607968 -15.14964,-25.860822 -8.40853,-5.583558 -15.48605,-7.710045 -26.70792,-8.024565 -12.58558,-0.352742 -25.18242,2.621723 -37.37847,8.826099 -8.34442,4.244969 -17.37638,11.2531 -24.94216,19.353254 -4.44168,4.755396 -6.99523,8.004192 -10.84115,13.792807 -4.19451,6.313296 -4.86393,7.48626 -7.21349,12.639545 -3.56386,7.81663 -5.22636,12.106824 -6.77711,17.488814 -1.08479,3.76484 -2.21484,12.403 -1.66687,12.74166 0.38503,0.23797 0.68737,-0.27873 1.41254,-2.41402 1.80725,-5.32156 5.31077,-12.06923 8.42081,-16.21822 6.53656,-8.720197 18.63344,-16.364164 30.61869,-19.347828 10.99073,-2.736081 19.12525,-2.717697 27.64884,0.06249 5.24183,1.709756 9.37252,4.798535 11.00197,8.226874 3.07866,6.477474 2.2728,11.990604 -2.97412,20.346874 -1.90014,3.02616 -5.22753,7.41175 -7.93802,10.46249 -2.97101,3.34397 -12.87013,13.00198 -18.35633,17.90922 -2.76449,2.47276 -6.90204,6.27678 -9.19454,8.45339 -2.29251,2.1766 -6.15422,5.81991 -8.58158,8.09624 -5.44414,5.10542 -29.12923,28.626 -30.00821,29.79978 -0.35215,0.47026 -2.05626,2.55464 -3.78692,4.63195 -1.73066,2.07731 -3.3152,4.17508 -3.52121,4.6617 -0.20601,0.48663 -0.76946,1.71229 -1.25211,2.72369 -1.17056,2.45292 -1.33767,4.27281 -0.48355,5.2658 0.44346,0.51554 0.8064,0.68974 1.40185,0.67281 0.59648,-0.017 0.83505,0.0979 0.92608,0.44604 0.0963,0.36836 0.21824,0.41772 0.56861,0.2302 0.36199,-0.19373 0.58778,-0.0667 1.19887,0.6747 0.41409,0.50235 0.75289,1.03502 0.75289,1.1837 0,0.36267 2.32499,2.87574 2.73812,2.95963 0.1797,0.0365 0.76806,0.23714 1.30748,0.4459 0.94875,0.36718 1.64065,0.36573 3.18744,-0.007 z m 131.68728,-40.55907 c -0.25112,-9.47793 -1.84545,-16.65239 -5.19003,-23.35512 -2.33605,-4.68155 -4.46592,-7.6034 -6.96817,-9.55926 -2.39048,-1.86849 -4.26068,-2.35612 -5.4496,-1.42092 -0.68785,0.54106 -1.47743,2.22315 -2.0183,4.29966 -0.58984,2.26455 -2.14145,10.92517 -2.01593,11.25228 0.0636,0.16574 0.54089,0.43205 1.06062,0.59179 1.67772,0.51566 6.2073,4.89064 10.31448,9.96246 4.85824,5.99927 8.7857,13.73972 9.45394,18.6323 l 0.29901,2.18939 0.32033,-3.90571 c 0.19763,-2.40963 0.27179,-5.73714 0.19365,-8.68687 z m 7.85653,-29.32215 c -0.74863,-4.28833 -2.94622,-9.53629 -5.61647,-13.41249 -1.8571,-2.69581 -5.04543,-6.07213 -6.46222,-6.84324 -1.51351,-0.82376 -3.75465,-1.20678 -5.33433,-0.91166 -1.34952,0.25212 -3.81799,1.6636 -4.56074,2.60785 -0.54915,0.69814 -1.41212,3.36996 -1.52507,4.72173 -0.0702,0.83984 -0.0558,0.85351 1.07369,1.01888 1.78436,0.26127 3.72834,0.88156 7.27173,2.32026 4.97463,2.01982 7.52785,3.59727 11.35219,7.01373 1.70148,1.52001 2.30001,2.2486 3.05997,3.72488 0.51963,1.00939 0.97516,1.80483 1.01236,1.76766 0.0372,-0.0372 -0.0848,-0.94059 -0.27111,-2.0076 z m -99.46018,-6.84846 c 1.8867,-1.02505 4.43799,-3.60968 5.22825,-5.29657 0.3553,-0.75843 0.77372,-2.15236 0.92983,-3.09762 0.77399,-4.68668 -1.91795,-9.59493 -6.39868,-11.6668 -2.12869,-0.9843 -5.24743,-1.17689 -7.50378,-0.46338 -5.07471,1.60474 -8.321,6.49927 -7.82273,11.79456 0.25413,2.70066 1.21819,4.76447 3.10875,6.65503 2.16126,2.16126 4.48969,2.95395 8.41734,2.86561 2.46771,-0.0555 2.81136,-0.12275 4.04102,-0.79083 z"
         id="path78" />
      <path
         style="fill:#67ce00;stroke-width:0.245188"
         d="m 156.07519,327.35966 c -20.51735,-1.79922 -38.4804,-6.67004 -56.00742,-15.18687 C 81.739051,303.26642 66.240221,291.62686 52.467281,276.42502 22.733755,243.6067 8.4481785,199.18955 13.410939,154.98985 17.548226,118.14203 34.28248,84.559981 61.165499,59.156702 85.491013,36.170154 116.09788,21.844742 149.47312,17.824697 c 7.14467,-0.860576 10.74704,-1.065528 18.63428,-1.060173 9.62258,0.0065 15.99493,0.522755 25.25435,2.045845 29.25183,4.811665 56.14821,17.667792 78.15198,37.355681 31.08073,27.809474 49.35855,65.87674 51.78924,107.86165 1.43595,24.80281 -3.64721,50.91262 -14.44622,74.20342 -14.21065,30.64888 -38.97173,56.42308 -69.27709,72.11164 -17.47678,9.04743 -35.59141,14.43568 -56.02543,16.66493 -6.18506,0.67476 -21.55342,0.87162 -27.47904,0.35197 z m -21.67284,-32.99067 c 6.24062,-0.50675 14.1418,-2.17702 19.11637,-4.04111 3.86669,-1.44894 8.21741,-3.49292 12.99541,-6.10528 13.21276,-7.22404 22.36773,-13.66775 32.08652,-22.58405 4.9544,-4.5453 12.19537,-12.18459 11.86368,-12.51626 -0.14454,-0.14456 -3.6512,0.75366 -6.6821,1.71159 -5.88126,1.85877 -14.18071,3.59193 -21.33134,4.45452 -4.38292,0.52875 -16.50295,0.74569 -20.99396,0.37583 -16.41962,-1.35234 -24.67947,-4.0329 -32.3344,-10.49351 -3.59892,-3.03741 -6.01045,-6.23403 -8.47219,-11.23038 -1.9446,-3.94676 -2.34778,-5.72182 -2.4984,-10.99965 -0.21176,-7.41979 1.14104,-14.42033 4.48498,-23.20908 1.25258,-3.29212 6.9829,-15.15394 9.05882,-18.75185 1.99372,-3.45544 6.52131,-9.99421 9.60539,-13.87214 4.13965,-5.20521 14.95485,-15.78066 21.65732,-21.17723 2.87713,-2.31655 24.52671,-16.68573 29.17736,-19.36548 15.72721,-9.06221 26.86272,-17.28083 35.43951,-26.15635 4.72842,-4.893095 8.01075,-9.41328 10.53511,-14.508169 2.36101,-4.765194 3.49239,-10.092984 3.23857,-15.250743 -0.52764,-10.721935 -5.73321,-19.607968 -15.14964,-25.860822 -8.40853,-5.583558 -15.48605,-7.710045 -26.70792,-8.024565 -12.58558,-0.352742 -25.18242,2.621723 -37.37847,8.826099 -8.34442,4.244969 -17.37638,11.2531 -24.94216,19.353254 -4.44168,4.755396 -6.99523,8.004192 -10.84115,13.792807 -4.19451,6.313296 -4.86393,7.48626 -7.21349,12.639545 -3.56386,7.81663 -5.22636,12.106824 -6.77711,17.488814 -1.08479,3.76484 -2.21484,12.403 -1.66687,12.74166 0.38503,0.23797 0.68737,-0.27873 1.41254,-2.41402 1.80725,-5.32156 5.31077,-12.06923 8.42081,-16.21822 6.53656,-8.720197 18.63344,-16.364164 30.61869,-19.347828 10.99073,-2.736081 19.12525,-2.717697 27.64884,0.06249 5.24183,1.709756 9.37252,4.798535 11.00197,8.226874 3.07866,6.477474 2.2728,11.990604 -2.97412,20.346874 -1.90014,3.02616 -5.22753,7.41175 -7.93802,10.46249 -2.97101,3.34397 -12.87013,13.00198 -18.35633,17.90922 -2.76449,2.47276 -6.90204,6.27582 -9.19454,8.45125 -2.29251,2.17542 -6.09905,5.7675 -8.45898,7.98238 -2.35994,2.21489 -9.58155,9.27348 -16.04802,15.68576 -14.7083,14.58501 -23.89521,24.63456 -28.738348,31.43685 -8.368066,11.75313 -15.529974,28.56904 -17.369599,40.78323 -0.49471,3.28463 -0.57408,10.23946 -0.148297,12.99496 0.978628,6.3333 3.996751,14.3236 7.280653,19.27507 5.405666,8.15068 15.926971,14.72299 26.433121,16.51186 4.53148,0.77156 14.46548,1.07409 20.13979,0.61331 z M 165.603,193.7361 c 0.68857,-0.5794 0.88781,-0.60943 4.47334,-0.67427 2.73451,-0.0494 3.78032,-0.15102 3.85455,-0.37435 0.0786,-0.23641 -0.76943,-0.30649 -3.70904,-0.30649 h -3.81092 l -0.60627,-0.65383 c -0.67955,-0.73286 -1.90773,-0.88501 -2.47397,-0.30649 -0.69421,0.70929 -0.70981,1.62579 -0.0391,2.29652 0.78541,0.78541 1.39454,0.79039 2.3114,0.0189 z m -4.32831,-4.05217 c 0.1307,0 0.599,-0.39445 1.04067,-0.87656 l 0.80303,-0.87656 5.37546,0.40699 c 2.9565,0.22385 5.76163,0.37004 6.23362,0.32489 l 0.85816,-0.0821 -0.65807,-0.36778 c -0.36194,-0.20228 -1.52045,-1.57987 -2.57448,-3.06132 -2.12679,-2.98924 -2.18519,-3.02303 -5.27806,-3.05425 -0.97295,-0.01 -1.49663,-0.13347 -1.71632,-0.40525 -1.40241,-1.73497 -1.7235,-1.85782 -2.74851,-1.05156 -0.83453,0.65645 -0.76961,1.56892 0.16083,2.26053 l 0.67073,0.49855 1.04558,-0.50028 c 0.90183,-0.4315 1.32124,-0.47761 3.05044,-0.33534 1.10267,0.0907 2.18306,0.31284 2.40087,0.49361 0.65643,0.54479 3.07251,4.09783 3.07251,4.51838 0,0.21546 -0.0827,0.39172 -0.18389,0.39169 -0.10114,-2e-5 -2.33541,-0.16579 -4.96505,-0.36838 -3.85078,-0.29666 -4.82888,-0.44495 -5.02635,-0.76208 -0.6785,-1.08958 -1.17683,-1.54373 -1.85809,-1.69336 -1.49211,-0.32772 -2.92308,0.85947 -2.92308,2.4251 0,1.17553 1.58677,2.4919 2.65583,2.20325 0.17959,-0.0485 0.43347,-0.0882 0.56417,-0.0882 z m 86.17238,-19.36984 c -0.25112,-9.47793 -1.84545,-16.65239 -5.19003,-23.35512 -2.33605,-4.68155 -4.46592,-7.6034 -6.96817,-9.55926 -2.39048,-1.86849 -4.26068,-2.35612 -5.4496,-1.42092 -0.68785,0.54106 -1.47743,2.22315 -2.0183,4.29966 -0.58984,2.26455 -2.14145,10.92517 -2.01593,11.25228 0.0636,0.16574 0.54089,0.43205 1.06062,0.59179 1.67772,0.51566 6.2073,4.89064 10.31448,9.96246 4.85824,5.99927 8.7857,13.73972 9.45394,18.6323 l 0.29901,2.18939 0.32033,-3.90571 c 0.19763,-2.40963 0.27179,-5.73714 0.19365,-8.68687 z m 7.85653,-29.32215 c -0.74863,-4.28833 -2.94622,-9.53629 -5.61647,-13.41249 -1.8571,-2.69581 -5.04543,-6.07213 -6.46222,-6.84324 -1.51351,-0.82376 -3.75465,-1.20678 -5.33433,-0.91166 -1.34952,0.25212 -3.81799,1.6636 -4.56074,2.60785 -0.54915,0.69814 -1.41212,3.36996 -1.52507,4.72173 -0.0702,0.83984 -0.0558,0.85351 1.07369,1.01888 1.78436,0.26127 3.72834,0.88156 7.27173,2.32026 4.97463,2.01982 7.52785,3.59727 11.35219,7.01373 1.70148,1.52001 2.30001,2.2486 3.05997,3.72488 0.51963,1.00939 0.97516,1.80483 1.01236,1.76766 0.0372,-0.0372 -0.0848,-0.94059 -0.27111,-2.0076 z m -99.46018,-6.84846 c 1.8867,-1.02505 4.43799,-3.60968 5.22825,-5.29657 0.3553,-0.75843 0.77372,-2.15236 0.92983,-3.09762 0.77399,-4.68668 -1.91795,-9.59493 -6.39868,-11.6668 -2.12869,-0.9843 -5.24743,-1.17689 -7.50378,-0.46338 -5.07471,1.60474 -8.321,6.49927 -7.82273,11.79456 0.25413,2.70066 1.21819,4.76447 3.10875,6.65503 2.16126,2.16126 4.48969,2.95395 8.41734,2.86561 2.46771,-0.0555 2.81136,-0.12275 4.04102,-0.79083 z"
         id="path76" />
      <path
         style="fill:#4f4f72;stroke-width:0.245188"
         d="m 156.07519,327.35966 c -20.51735,-1.79922 -38.4804,-6.67004 -56.00742,-15.18687 C 81.739051,303.26642 66.240221,291.62686 52.467281,276.42502 22.733755,243.6067 8.4481785,199.18955 13.410939,154.98985 17.548226,118.14203 34.28248,84.559981 61.165499,59.156702 85.491013,36.170154 116.09788,21.844742 149.47312,17.824697 c 7.14467,-0.860576 10.74704,-1.065528 18.63428,-1.060173 9.62258,0.0065 15.99493,0.522755 25.25435,2.045845 29.25183,4.811665 56.14821,17.667792 78.15198,37.355681 31.08073,27.809474 49.35855,65.87674 51.78924,107.86165 1.43595,24.80281 -3.64721,50.91262 -14.44622,74.20342 -14.21065,30.64888 -38.97173,56.42308 -69.27709,72.11164 -17.47678,9.04743 -35.59141,14.43568 -56.02543,16.66493 -6.18506,0.67476 -21.55342,0.87162 -27.47904,0.35197 z m -21.67284,-32.99067 c 6.24062,-0.50675 14.1418,-2.17702 19.11637,-4.04111 3.86669,-1.44894 8.21741,-3.49292 12.99541,-6.10528 13.21276,-7.22404 22.36773,-13.66775 32.08652,-22.58405 4.9544,-4.5453 12.19537,-12.18459 11.86368,-12.51626 -0.14454,-0.14456 -3.6512,0.75366 -6.6821,1.71159 -5.88126,1.85877 -14.18071,3.59193 -21.33134,4.45452 -4.38292,0.52875 -16.50295,0.74569 -20.99396,0.37583 -16.41962,-1.35234 -24.67947,-4.0329 -32.3344,-10.49351 -3.59892,-3.03741 -6.01045,-6.23403 -8.47219,-11.23038 -1.9446,-3.94676 -2.34778,-5.72182 -2.4984,-10.99965 -0.21176,-7.41979 1.14104,-14.42033 4.48498,-23.20908 1.25258,-3.29212 6.9829,-15.15394 9.05882,-18.75185 1.99372,-3.45544 6.52131,-9.99421 9.60539,-13.87214 4.13965,-5.20521 14.95485,-15.78066 21.65732,-21.17723 2.87713,-2.31655 24.52671,-16.68573 29.17736,-19.36548 15.72721,-9.06221 26.86272,-17.28083 35.43951,-26.15635 4.72842,-4.893095 8.01075,-9.41328 10.53511,-14.508169 2.36101,-4.765194 3.49239,-10.092984 3.23857,-15.250743 -0.52764,-10.721935 -5.73321,-19.607968 -15.14964,-25.860822 -8.40853,-5.583558 -15.48605,-7.710045 -26.70792,-8.024565 -12.58558,-0.352742 -25.18242,2.621723 -37.37847,8.826099 -8.34442,4.244969 -17.37638,11.2531 -24.94216,19.353254 -4.44168,4.755396 -6.99523,8.004192 -10.84115,13.792807 -4.19451,6.313296 -4.86393,7.48626 -7.21349,12.639545 -3.56386,7.81663 -5.22636,12.106824 -6.77711,17.488814 -1.08479,3.76484 -2.21484,12.403 -1.66687,12.74166 0.38503,0.23797 0.68737,-0.27873 1.41254,-2.41402 1.80725,-5.32156 5.31077,-12.06923 8.42081,-16.21822 6.53656,-8.720197 18.63344,-16.364164 30.61869,-19.347828 10.99073,-2.736081 19.12525,-2.717697 27.64884,0.06249 5.24183,1.709756 9.37252,4.798535 11.00197,8.226874 3.07866,6.477474 2.2728,11.990604 -2.97412,20.346874 -1.90014,3.02616 -5.22753,7.41175 -7.93802,10.46249 -2.97101,3.34397 -12.87013,13.00198 -18.35633,17.90922 -2.76449,2.47276 -6.90204,6.27582 -9.19454,8.45125 -2.29251,2.17542 -6.09905,5.7675 -8.45898,7.98238 -2.35994,2.21489 -9.58155,9.27348 -16.04802,15.68576 -14.7083,14.58501 -23.89521,24.63456 -28.738348,31.43685 -8.368066,11.75313 -15.529974,28.56904 -17.369599,40.78323 -0.49471,3.28463 -0.57408,10.23946 -0.148297,12.99496 0.978628,6.3333 3.996751,14.3236 7.280653,19.27507 5.405666,8.15068 15.926971,14.72299 26.433121,16.51186 4.53148,0.77156 14.46548,1.07409 20.13979,0.61331 z M 243.0929,198.3268 c 1.26843,-3.30524 3.39583,-11.35342 3.93731,-14.89516 0.87357,-5.71429 0.93065,-14.01935 0.13899,-20.228 -0.44617,-3.49924 -1.72161,-9.06332 -2.69778,-11.76902 -0.89681,-2.48578 -3.06917,-6.79172 -4.6682,-9.25309 -2.38684,-3.67405 -5.92952,-6.59987 -8.3172,-6.86899 -1.02243,-0.11525 -1.16735,-0.0585 -1.93898,0.75971 -1.03271,1.09498 -1.85929,3.511 -2.69738,7.88414 -1.59551,8.3254 -1.65486,9.26483 -0.69925,11.06874 0.27547,0.52001 1.05562,1.99365 1.73366,3.27475 1.75041,3.30725 3.53974,7.93699 4.69267,12.14182 0.67889,2.476 1.38572,4.38898 2.23834,6.05794 3.01856,5.90865 5.49878,13.66161 6.7654,21.14808 0.24001,1.41861 0.51442,2.57929 0.60979,2.57929 0.0954,0 0.50156,-0.8551 0.90263,-1.90021 z m -77.4899,-4.5907 c 0.68857,-0.5794 0.88781,-0.60943 4.47334,-0.67427 2.73451,-0.0494 3.78032,-0.15102 3.85455,-0.37435 0.0786,-0.23641 -0.76943,-0.30649 -3.70904,-0.30649 h -3.81092 l -0.60627,-0.65383 c -0.67955,-0.73286 -1.90773,-0.88501 -2.47397,-0.30649 -0.69421,0.70929 -0.70981,1.62579 -0.0391,2.29652 0.78541,0.78541 1.39454,0.79039 2.3114,0.0189 z m -4.32831,-4.05217 c 0.1307,0 0.599,-0.39445 1.04067,-0.87656 l 0.80303,-0.87656 5.37546,0.40699 c 2.9565,0.22385 5.76163,0.37004 6.23362,0.32489 l 0.85816,-0.0821 -0.65807,-0.36778 c -0.36194,-0.20228 -1.52045,-1.57987 -2.57448,-3.06132 -2.12679,-2.98924 -2.18519,-3.02303 -5.27806,-3.05425 -0.97295,-0.01 -1.49663,-0.13347 -1.71632,-0.40525 -1.40241,-1.73497 -1.7235,-1.85782 -2.74851,-1.05156 -0.83453,0.65645 -0.76961,1.56892 0.16083,2.26053 l 0.67073,0.49855 1.04558,-0.50028 c 0.90183,-0.4315 1.32124,-0.47761 3.05044,-0.33534 1.10267,0.0907 2.18306,0.31284 2.40087,0.49361 0.65643,0.54479 3.07251,4.09783 3.07251,4.51838 0,0.21546 -0.0827,0.39172 -0.18389,0.39169 -0.10114,-2e-5 -2.33541,-0.16579 -4.96505,-0.36838 -3.85078,-0.29666 -4.82888,-0.44495 -5.02635,-0.76208 -0.6785,-1.08958 -1.17683,-1.54373 -1.85809,-1.69336 -1.49211,-0.32772 -2.92308,0.85947 -2.92308,2.4251 0,1.17553 1.58677,2.4919 2.65583,2.20325 0.17959,-0.0485 0.43347,-0.0882 0.56417,-0.0882 z m 94.1113,-38.24931 c 0.45325,-2.89223 0.5134,-8.17255 0.11894,-10.4426 -0.49023,-2.82121 -1.63842,-6.16426 -3.16629,-9.21887 -1.69574,-3.39029 -3.27298,-5.65602 -5.8887,-8.45921 -2.62584,-2.81402 -3.95716,-3.54166 -6.7789,-3.705 -1.79907,-0.10415 -2.05202,-0.0561 -3.52549,0.66926 -3.18275,1.56686 -4.27943,3.44791 -4.47897,7.68239 -0.13351,2.83324 0.11642,3.62712 1.38315,4.39345 1.54477,0.93454 3.76454,2.70413 5.79436,4.61923 1.07883,1.01786 2.78902,2.50333 3.80042,3.30105 3.90606,3.08081 10.17159,10.02463 11.68347,12.94825 0.49493,0.9571 0.67569,0.65164 1.05801,-1.78795 z m -99.54257,-17.29114 c 1.8867,-1.02505 4.43799,-3.60968 5.22825,-5.29657 0.3553,-0.75843 0.77372,-2.15236 0.92983,-3.09762 0.77399,-4.68668 -1.91795,-9.59493 -6.39868,-11.6668 -2.12869,-0.9843 -5.24743,-1.17689 -7.50378,-0.46338 -5.07471,1.60474 -8.321,6.49927 -7.82273,11.79456 0.25413,2.70066 1.21819,4.76447 3.10875,6.65503 2.16126,2.16126 4.48969,2.95395 8.41734,2.86561 2.46771,-0.0555 2.81136,-0.12275 4.04102,-0.79083 z"
         id="path74" />
      <path
         style="fill:#5ab102;stroke-width:0.245188"
         d="m 158.79026,327.3245 c -10.07632,-0.87893 -15.58037,-1.62638 -22.46151,-3.05031 C 78.569699,312.32197 32.525373,268.53759 17.699679,211.46767 13.003145,193.38886 11.597873,174.72087 13.53125,156.09319 16.776149,124.82929 29.458352,95.229326 49.826564,71.380786 70.566835,47.096615 98.476758,29.690033 129.24512,21.849811 c 19.28924,-4.915175 38.72306,-6.134563 58.35471,-3.661505 29.87453,3.763383 58.50462,16.430206 81.27978,35.96064 13.1809,11.303062 24.82833,25.242019 33.31926,39.874522 17.86544,30.787772 24.647,66.653632 19.24654,101.790152 -6.19568,40.31054 -27.57736,76.04242 -60.25203,100.68983 -20.07532,15.14337 -44.53271,25.41161 -69.67054,29.25067 -7.94709,1.21368 -12.35837,1.53188 -22.1895,1.60061 -5.19186,0.0363 -9.93624,0.0228 -10.54308,-0.0302 z m -24.38791,-32.95551 c 6.24062,-0.50675 14.1418,-2.17702 19.11637,-4.04111 3.86669,-1.44894 8.21741,-3.49292 12.99541,-6.10528 13.21276,-7.22404 22.36773,-13.66775 32.08652,-22.58405 4.9544,-4.5453 12.19537,-12.18459 11.86368,-12.51626 -0.14454,-0.14456 -3.6512,0.75366 -6.6821,1.71159 -5.88126,1.85877 -14.18071,3.59193 -21.33134,4.45452 -4.38292,0.52875 -16.50295,0.74569 -20.99396,0.37583 -16.41962,-1.35234 -24.67947,-4.0329 -32.3344,-10.49351 -3.59892,-3.03741 -6.01045,-6.23403 -8.47219,-11.23038 -1.9446,-3.94676 -2.34778,-5.72182 -2.4984,-10.99965 -0.21176,-7.41979 1.14104,-14.42033 4.48498,-23.20908 1.25258,-3.29212 6.9829,-15.15394 9.05882,-18.75185 1.99372,-3.45544 6.52131,-9.99421 9.60539,-13.87214 4.13965,-5.20521 14.95485,-15.78066 21.65732,-21.17723 2.87713,-2.31655 24.52671,-16.68573 29.17736,-19.36548 15.72721,-9.06221 26.86272,-17.28083 35.43951,-26.15635 4.72842,-4.893095 8.01075,-9.41328 10.53511,-14.508169 2.36101,-4.765194 3.49239,-10.092984 3.23857,-15.250743 -0.52764,-10.721935 -5.73321,-19.607968 -15.14964,-25.860822 -8.40853,-5.583558 -15.48605,-7.710045 -26.70792,-8.024565 -12.58558,-0.352742 -25.18242,2.621723 -37.37847,8.826099 -8.34442,4.244969 -17.37638,11.2531 -24.94216,19.353254 -4.44168,4.755396 -6.99523,8.004192 -10.84115,13.792807 -4.19451,6.313296 -4.86393,7.48626 -7.21349,12.639545 -3.56386,7.81663 -5.22636,12.106824 -6.77711,17.488814 -1.08479,3.76484 -2.21484,12.403 -1.66687,12.74166 0.38503,0.23797 0.68737,-0.27873 1.41254,-2.41402 1.80725,-5.32156 5.31077,-12.06923 8.42081,-16.21822 6.53656,-8.720197 18.63344,-16.364164 30.61869,-19.347828 10.99073,-2.736081 19.12525,-2.717697 27.64884,0.06249 5.24183,1.709756 9.37252,4.798535 11.00197,8.226874 3.07866,6.477474 2.2728,11.990604 -2.97412,20.346874 -1.90014,3.02616 -5.22753,7.41175 -7.93802,10.46249 -2.97101,3.34397 -12.87013,13.00198 -18.35633,17.90922 -2.76449,2.47276 -6.90204,6.27582 -9.19454,8.45125 -2.29251,2.17542 -6.09905,5.7675 -8.45898,7.98238 -2.35994,2.21489 -9.58155,9.27348 -16.04802,15.68576 -14.7083,14.58501 -23.89521,24.63456 -28.738348,31.43685 -8.368066,11.75313 -15.529974,28.56904 -17.369599,40.78323 -0.49471,3.28463 -0.57408,10.23946 -0.148297,12.99496 0.978628,6.3333 3.996751,14.3236 7.280653,19.27507 5.405666,8.15068 15.926971,14.72299 26.433121,16.51186 4.53148,0.77156 14.46548,1.07409 20.13979,0.61331 z M 243.0929,198.3268 c 1.26843,-3.30524 3.39583,-11.35342 3.93731,-14.89516 0.87357,-5.71429 0.93065,-14.01935 0.13899,-20.228 -0.44617,-3.49924 -1.72161,-9.06332 -2.69778,-11.76902 -0.89681,-2.48578 -3.06917,-6.79172 -4.6682,-9.25309 -2.38684,-3.67405 -5.92952,-6.59987 -8.3172,-6.86899 -1.02243,-0.11525 -1.16735,-0.0585 -1.93898,0.75971 -1.03271,1.09498 -1.85929,3.511 -2.69738,7.88414 -1.59551,8.3254 -1.65486,9.26483 -0.69925,11.06874 0.27547,0.52001 1.05562,1.99365 1.73366,3.27475 1.75041,3.30725 3.53974,7.93699 4.69267,12.14182 0.67889,2.476 1.38572,4.38898 2.23834,6.05794 3.01856,5.90865 5.49878,13.66161 6.7654,21.14808 0.24001,1.41861 0.51442,2.57929 0.60979,2.57929 0.0954,0 0.50156,-0.8551 0.90263,-1.90021 z m -77.4899,-4.5907 c 0.68857,-0.5794 0.88781,-0.60943 4.47334,-0.67427 2.73451,-0.0494 3.78032,-0.15102 3.85455,-0.37435 0.0786,-0.23641 -0.76943,-0.30649 -3.70904,-0.30649 h -3.81092 l -0.60627,-0.65383 c -0.67955,-0.73286 -1.90773,-0.88501 -2.47397,-0.30649 -0.69421,0.70929 -0.70981,1.62579 -0.0391,2.29652 0.78541,0.78541 1.39454,0.79039 2.3114,0.0189 z m -4.32831,-4.05217 c 0.1307,0 0.599,-0.39445 1.04067,-0.87656 l 0.80303,-0.87656 5.37546,0.40699 c 2.9565,0.22385 5.76163,0.37004 6.23362,0.32489 l 0.85816,-0.0821 -0.65807,-0.36778 c -0.36194,-0.20228 -1.52045,-1.57987 -2.57448,-3.06132 -2.12679,-2.98924 -2.18519,-3.02303 -5.27806,-3.05425 -0.97295,-0.01 -1.49663,-0.13347 -1.71632,-0.40525 -1.40241,-1.73497 -1.7235,-1.85782 -2.74851,-1.05156 -0.83453,0.65645 -0.76961,1.56892 0.16083,2.26053 l 0.67073,0.49855 1.04558,-0.50028 c 0.90183,-0.4315 1.32124,-0.47761 3.05044,-0.33534 1.10267,0.0907 2.18306,0.31284 2.40087,0.49361 0.65643,0.54479 3.07251,4.09783 3.07251,4.51838 0,0.21546 -0.0827,0.39172 -0.18389,0.39169 -0.10114,-2e-5 -2.33541,-0.16579 -4.96505,-0.36838 -3.85078,-0.29666 -4.82888,-0.44495 -5.02635,-0.76208 -0.6785,-1.08958 -1.17683,-1.54373 -1.85809,-1.69336 -1.49211,-0.32772 -2.92308,0.85947 -2.92308,2.4251 0,1.17553 1.58677,2.4919 2.65583,2.20325 0.17959,-0.0485 0.43347,-0.0882 0.56417,-0.0882 z m 94.1113,-38.24931 c 0.45325,-2.89223 0.5134,-8.17255 0.11894,-10.4426 -0.49023,-2.82121 -1.63842,-6.16426 -3.16629,-9.21887 -1.69574,-3.39029 -3.27298,-5.65602 -5.8887,-8.45921 -2.62584,-2.81402 -3.95716,-3.54166 -6.7789,-3.705 -1.79907,-0.10415 -2.05202,-0.0561 -3.52549,0.66926 -3.18275,1.56686 -4.27943,3.44791 -4.47897,7.68239 -0.13351,2.83324 0.11642,3.62712 1.38315,4.39345 1.54477,0.93454 3.76454,2.70413 5.79436,4.61923 1.07883,1.01786 2.78902,2.50333 3.80042,3.30105 3.90606,3.08081 10.17159,10.02463 11.68347,12.94825 0.49493,0.9571 0.67569,0.65164 1.05801,-1.78795 z m -99.69134,-17.12971 c 2.3904,-1.17679 4.36604,-3.11419 5.48556,-5.37939 0.90944,-1.84013 0.92008,-1.89583 0.92008,-4.81663 0,-2.82199 -0.0357,-3.03028 -0.79261,-4.62844 -0.99695,-2.10489 -3.30481,-4.47243 -5.25456,-5.39043 -2.02354,-0.95275 -4.46564,-1.31768 -6.49343,-0.97033 -3.55959,0.60973 -6.84644,3.0768 -8.45399,6.34548 -0.8128,1.65268 -0.82698,1.73706 -0.81886,4.87272 0.008,3.00872 0.0488,3.27491 0.71795,4.66204 0.86349,1.78994 3.34742,4.35904 4.86253,5.02924 2.07438,0.9176 3.64571,1.22067 5.96003,1.14955 1.94902,-0.0599 2.43878,-0.17055 3.8673,-0.87381 z"
         id="path72" />
      <path
         style="fill:#06ac56;stroke-width:0.245188"
         d="m 158.79026,327.3245 c -10.07632,-0.87893 -15.58037,-1.62638 -22.46151,-3.05031 C 78.569699,312.32197 32.525373,268.53759 17.699679,211.46767 13.003145,193.38886 11.597873,174.72087 13.53125,156.09319 16.776149,124.82929 29.458352,95.229326 49.826564,71.380786 70.566835,47.096615 98.476758,29.690033 129.24512,21.849811 c 19.28924,-4.915175 38.72306,-6.134563 58.35471,-3.661505 29.87453,3.763383 58.50462,16.430206 81.27978,35.96064 13.1809,11.303062 24.82833,25.242019 33.31926,39.874522 17.86544,30.787772 24.647,66.653632 19.24654,101.790152 -6.19568,40.31054 -27.57736,76.04242 -60.25203,100.68983 -20.07532,15.14337 -44.53271,25.41161 -69.67054,29.25067 -7.94709,1.21368 -12.35837,1.53188 -22.1895,1.60061 -5.19186,0.0363 -9.93624,0.0228 -10.54308,-0.0302 z m -24.38791,-32.95551 c 6.24062,-0.50675 14.1418,-2.17702 19.11637,-4.04111 3.86669,-1.44894 8.21741,-3.49292 12.99541,-6.10528 13.21276,-7.22404 22.36773,-13.66775 32.08652,-22.58405 4.9544,-4.5453 12.19537,-12.18459 11.86368,-12.51626 -0.14454,-0.14456 -3.6512,0.75366 -6.6821,1.71159 -5.88126,1.85877 -14.18071,3.59193 -21.33134,4.45452 -4.38292,0.52875 -16.50295,0.74569 -20.99396,0.37583 -16.41962,-1.35234 -24.67947,-4.0329 -32.3344,-10.49351 -3.59892,-3.03741 -6.01045,-6.23403 -8.47219,-11.23038 -1.9446,-3.94676 -2.34778,-5.72182 -2.4984,-10.99965 -0.21176,-7.41979 1.14104,-14.42033 4.48498,-23.20908 1.25258,-3.29212 6.9829,-15.15394 9.05882,-18.75185 1.99372,-3.45544 6.52131,-9.99421 9.60539,-13.87214 4.13965,-5.20521 14.95485,-15.78066 21.65732,-21.17723 2.87713,-2.31655 24.52671,-16.68573 29.17736,-19.36548 15.72721,-9.06221 26.86272,-17.28083 35.43951,-26.15635 4.72842,-4.893095 8.01075,-9.41328 10.53511,-14.508169 2.36101,-4.765194 3.49239,-10.092984 3.23857,-15.250743 -0.52764,-10.721935 -5.73321,-19.607968 -15.14964,-25.860822 -8.40853,-5.583558 -15.48605,-7.710045 -26.70792,-8.024565 -12.58558,-0.352742 -25.18242,2.621723 -37.37847,8.826099 -8.34442,4.244969 -17.37638,11.2531 -24.94216,19.353254 -4.44168,4.755396 -6.99523,8.004192 -10.84115,13.792807 -4.19451,6.313296 -4.86393,7.48626 -7.21349,12.639545 -3.56386,7.81663 -5.22636,12.106824 -6.77711,17.488814 -1.08479,3.76484 -2.21484,12.403 -1.66687,12.74166 0.38503,0.23797 0.68737,-0.27873 1.41254,-2.41402 1.80725,-5.32156 5.31077,-12.06923 8.42081,-16.21822 6.53656,-8.720197 18.63344,-16.364164 30.61869,-19.347828 10.99073,-2.736081 19.12525,-2.717697 27.64884,0.06249 5.24183,1.709756 9.37252,4.798535 11.00197,8.226874 3.07866,6.477474 2.2728,11.990604 -2.97412,20.346874 -1.90014,3.02616 -5.22753,7.41175 -7.93802,10.46249 -2.97101,3.34397 -12.87013,13.00198 -18.35633,17.90922 -2.76449,2.47276 -6.90204,6.27582 -9.19454,8.45125 -2.29251,2.17542 -6.09905,5.7675 -8.45898,7.98238 -2.35994,2.21489 -9.58155,9.27348 -16.04802,15.68576 -14.7083,14.58501 -23.89521,24.63456 -28.738348,31.43685 -8.368066,11.75313 -15.529974,28.56904 -17.369599,40.78323 -0.49471,3.28463 -0.57408,10.23946 -0.148297,12.99496 0.978628,6.3333 3.996751,14.3236 7.280653,19.27507 5.405666,8.15068 15.926971,14.72299 26.433121,16.51186 4.53148,0.77156 14.46548,1.07409 20.13979,0.61331 z M 237.15122,210.1851 c 4.01138,-3.43359 9.65393,-19.01784 10.45883,-28.8865 0.73289,-8.98553 0.29996,-17.78905 -1.19132,-24.22466 -1.57569,-6.7999 -4.79361,-13.64285 -8.40562,-17.8747 -1.95984,-2.29616 -4.99277,-4.2374 -6.6899,-4.2819 -1.81072,-0.0475 -3.19909,1.84662 -4.10948,5.60642 -0.79782,3.29486 -2.02736,10.45645 -2.06267,12.01421 -0.0355,1.56824 -0.1062,1.38639 2.23879,5.76191 2.63964,4.92531 4.66857,11.03103 6.2855,18.91513 2.10094,10.24416 2.49405,18.00492 1.48817,29.37959 -0.34759,3.93069 -0.28091,4.42067 0.60161,4.42067 0.22892,0 0.85267,-0.37357 1.38609,-0.83017 z M 165.603,193.7361 c 0.68857,-0.5794 0.88781,-0.60943 4.47334,-0.67427 2.73451,-0.0494 3.78032,-0.15102 3.85455,-0.37435 0.0786,-0.23641 -0.76943,-0.30649 -3.70904,-0.30649 h -3.81092 l -0.60627,-0.65383 c -0.67955,-0.73286 -1.90773,-0.88501 -2.47397,-0.30649 -0.69421,0.70929 -0.70981,1.62579 -0.0391,2.29652 0.78541,0.78541 1.39454,0.79039 2.3114,0.0189 z m -4.32831,-4.05217 c 0.1307,0 0.599,-0.39445 1.04067,-0.87656 l 0.80303,-0.87656 5.37546,0.40699 c 2.9565,0.22385 5.76163,0.37004 6.23362,0.32489 l 0.85816,-0.0821 -0.65807,-0.36778 c -0.36194,-0.20228 -1.52045,-1.57987 -2.57448,-3.06132 -2.12679,-2.98924 -2.18519,-3.02303 -5.27806,-3.05425 -0.97295,-0.01 -1.49663,-0.13347 -1.71632,-0.40525 -1.40241,-1.73497 -1.7235,-1.85782 -2.74851,-1.05156 -0.83453,0.65645 -0.76961,1.56892 0.16083,2.26053 l 0.67073,0.49855 1.04558,-0.50028 c 0.90183,-0.4315 1.32124,-0.47761 3.05044,-0.33534 1.10267,0.0907 2.18306,0.31284 2.40087,0.49361 0.65643,0.54479 3.07251,4.09783 3.07251,4.51838 0,0.21546 -0.0827,0.39172 -0.18389,0.39169 -0.10114,-2e-5 -2.33541,-0.16579 -4.96505,-0.36838 -3.85078,-0.29666 -4.82888,-0.44495 -5.02635,-0.76208 -0.6785,-1.08958 -1.17683,-1.54373 -1.85809,-1.69336 -1.49211,-0.32772 -2.92308,0.85947 -2.92308,2.4251 0,1.17553 1.58677,2.4919 2.65583,2.20325 0.17959,-0.0485 0.43347,-0.0882 0.56417,-0.0882 z m 90.5354,-28.52843 c 2.83004,-3.04359 4.37104,-8.31556 4.38227,-14.99242 0.006,-3.83956 -0.23582,-5.50328 -1.32112,-9.07195 -1.61138,-5.29854 -4.67414,-10.45146 -8.53671,-14.36238 -2.80197,-2.83708 -4.09837,-3.47236 -7.12619,-3.49207 -1.63974,-0.0107 -2.01704,0.0806 -3.42944,0.83003 -2.27767,1.20848 -3.21991,2.24568 -3.8923,4.2846 -0.75782,2.29799 -0.98295,5.84702 -0.43777,6.90128 0.2248,0.43471 1.26577,1.37201 2.42353,2.18218 2.45031,1.71464 4.0936,3.23927 6.31065,5.85492 4.77266,5.63077 7.78303,12.02274 9.05519,19.22697 0.65923,3.73328 1.11727,4.20324 2.57189,2.63884 z m -96.11544,-26.85059 c 2.3904,-1.17679 4.36604,-3.11419 5.48556,-5.37939 0.90944,-1.84013 0.92008,-1.89583 0.92008,-4.81663 0,-2.82199 -0.0357,-3.03028 -0.79261,-4.62844 -0.99695,-2.10489 -3.30481,-4.47243 -5.25456,-5.39043 -2.02354,-0.95275 -4.46564,-1.31768 -6.49343,-0.97033 -3.55959,0.60973 -6.84644,3.0768 -8.45399,6.34548 -0.8128,1.65268 -0.82698,1.73706 -0.81886,4.87272 0.008,3.00872 0.0488,3.27491 0.71795,4.66204 0.86349,1.78994 3.34742,4.35904 4.86253,5.02924 2.07438,0.9176 3.64571,1.22067 5.96003,1.14955 1.94902,-0.0599 2.43878,-0.17055 3.8673,-0.87381 z"
         id="path70" />
      <path
         style="fill:#029b54;stroke-width:0.245188"
         d="m 158.79026,327.3245 c -10.07632,-0.87893 -15.58037,-1.62638 -22.46151,-3.05031 C 78.569699,312.32197 32.525373,268.53759 17.699679,211.46767 13.003145,193.38886 11.597873,174.72087 13.53125,156.09319 16.776149,124.82929 29.458352,95.229326 49.826564,71.380786 70.566835,47.096615 98.476758,29.690033 129.24512,21.849811 c 19.28924,-4.915175 38.72306,-6.134563 58.35471,-3.661505 29.87453,3.763383 58.50462,16.430206 81.27978,35.96064 13.1809,11.303062 24.82833,25.242019 33.31926,39.874522 17.86544,30.787772 24.647,66.653632 19.24654,101.790152 -6.19568,40.31054 -27.57736,76.04242 -60.25203,100.68983 -20.07532,15.14337 -44.53271,25.41161 -69.67054,29.25067 -7.94709,1.21368 -12.35837,1.53188 -22.1895,1.60061 -5.19186,0.0363 -9.93624,0.0228 -10.54308,-0.0302 z m -24.92342,-32.70345 c 7.09885,-0.58816 14.79613,-2.2855 20.75522,-4.57678 7.54141,-2.89969 21.37319,-10.64723 30.0082,-16.80839 9.79409,-6.98817 21.52394,-17.95885 27.24317,-25.47997 0.53941,-0.70935 1.89869,-2.45304 3.02062,-3.87484 3.07863,-3.9015 6.85169,-9.64276 8.14422,-12.39261 3.98549,-8.47913 5.51768,-17.0814 5.33854,-29.97259 l -0.0758,-5.4538 -1.99994,2.63414 c -10.86456,14.30985 -22.58766,23.92808 -39.80459,32.65769 -9.78503,4.96137 -19.63847,8.00511 -29.42255,9.08866 -1.2811,0.14187 -3.32914,0.57795 -4.55119,0.96906 -4.72133,1.51103 -10.66745,2.36615 -14.81865,2.1311 -7.15735,-0.40528 -13.13343,-3.41715 -16.03409,-8.08099 -2.58028,-4.14872 -3.45682,-7.68942 -3.44191,-13.90338 0.0161,-6.69871 1.24311,-12.89656 4.15126,-20.96834 1.28998,-3.58044 6.86436,-15.3355 9.19768,-19.39575 2.08192,-3.62278 6.55069,-10.09639 9.72409,-14.08664 4.13965,-5.20521 14.95485,-15.78066 21.65732,-21.17723 2.87713,-2.31655 24.52671,-16.68573 29.17736,-19.36548 15.72721,-9.06221 26.86272,-17.28083 35.43951,-26.15635 4.72842,-4.893095 8.01075,-9.41328 10.53511,-14.508169 2.36101,-4.765194 3.49239,-10.092984 3.23857,-15.250743 -0.52764,-10.721935 -5.73321,-19.607968 -15.14964,-25.860822 -8.40853,-5.583558 -15.48605,-7.710045 -26.70792,-8.024565 -12.58558,-0.352742 -25.18242,2.621723 -37.37847,8.826099 -8.34442,4.244969 -17.37638,11.2531 -24.94216,19.353254 -4.44168,4.755396 -6.99523,8.004192 -10.84115,13.792807 -4.19451,6.313296 -4.86393,7.48626 -7.21349,12.639545 -3.56386,7.81663 -5.22636,12.106824 -6.77711,17.488814 -1.08479,3.76484 -2.21484,12.403 -1.66687,12.74166 0.38503,0.23797 0.68737,-0.27873 1.41254,-2.41402 1.80725,-5.32156 5.31077,-12.06923 8.42081,-16.21822 6.53656,-8.720197 18.63344,-16.364164 30.61869,-19.347828 10.99073,-2.736081 19.12525,-2.717697 27.64884,0.06249 5.24183,1.709756 9.37252,4.798535 11.00197,8.226874 3.07866,6.477474 2.2728,11.990604 -2.97412,20.346874 -1.90014,3.02616 -5.22753,7.41175 -7.93802,10.46249 -2.97101,3.34397 -12.87013,13.00198 -18.35633,17.90922 -2.76449,2.47276 -6.90204,6.27582 -9.19454,8.45125 -2.29251,2.17542 -6.09905,5.7675 -8.45898,7.98238 -6.97402,6.54539 -27.45049,26.96286 -32.1626,32.06992 -6.5894,7.1417 -10.68888,12.00398 -13.483902,15.99289 -3.686343,5.26095 -8.858493,15.0426 -11.438075,21.63188 -5.529097,14.12348 -6.984333,24.49912 -4.801293,34.23258 1.710207,7.62527 5.21734,14.96387 9.493772,19.86549 5.202854,5.96351 13.888078,10.93813 22.256508,12.74783 4.95306,1.07111 14.76962,1.54108 21.14938,1.01251 z M 237.15122,210.1851 c 4.01138,-3.43359 9.65393,-19.01784 10.45883,-28.8865 0.73289,-8.98553 0.29996,-17.78905 -1.19132,-24.22466 -1.57569,-6.7999 -4.79361,-13.64285 -8.40562,-17.8747 -1.95984,-2.29616 -4.99277,-4.2374 -6.6899,-4.2819 -1.81072,-0.0475 -3.19909,1.84662 -4.10948,5.60642 -0.79782,3.29486 -2.02736,10.45645 -2.06267,12.01421 -0.0355,1.56824 -0.1062,1.38639 2.23879,5.76191 2.63964,4.92531 4.66857,11.03103 6.2855,18.91513 2.10094,10.24416 2.49405,18.00492 1.48817,29.37959 -0.34759,3.93069 -0.28091,4.42067 0.60161,4.42067 0.22892,0 0.85267,-0.37357 1.38609,-0.83017 z m -71.25051,-16.21038 c 0.56064,-0.59679 0.6658,-0.61297 3.98186,-0.61297 3.38018,0 4.35452,-0.19018 4.35452,-0.84992 0,-0.27512 -0.75772,-0.35762 -3.86171,-0.42045 -3.84362,-0.0778 -3.86481,-0.0813 -4.52483,-0.75243 -1.29569,-1.31747 -3.38247,-0.48309 -3.38247,1.35245 0,1.78993 2.18815,2.60799 3.43263,1.28332 z m -4.33597,-4.0687 c 0.29455,-0.14756 0.77838,-0.55632 1.07518,-0.90837 l 0.53961,-0.64008 5.89013,0.43644 c 3.23956,0.24004 6.00335,0.36646 6.14174,0.28093 0.43992,-0.27188 0.27153,-1.0379 -0.31225,-1.4204 -0.31013,-0.2032 -1.36947,-1.53601 -2.35409,-2.9618 -0.98462,-1.42579 -1.97214,-2.64531 -2.19449,-2.71006 -0.22234,-0.0647 -1.39728,-0.19251 -2.61096,-0.28393 -2.12805,-0.16028 -2.2243,-0.19353 -2.70092,-0.93297 -0.81703,-1.26757 -2.61163,-1.18605 -3.17089,0.14402 -0.38137,0.90702 -0.0976,2.02577 0.60995,2.40442 0.68009,0.36397 1.85253,0.28731 2.21096,-0.14457 0.26074,-0.31417 0.65903,-0.35681 2.17541,-0.23291 2.85088,0.23294 2.80264,0.20657 4.30741,2.35404 0.76418,1.09056 1.33879,2.03345 1.27692,2.09532 -0.0619,0.0619 -2.08451,-0.0217 -4.49476,-0.18575 l -4.38227,-0.29824 -0.99789,-1.06097 c -0.89275,-0.94919 -1.1153,-1.06097 -2.11232,-1.06097 -1.36498,0 -2.29319,0.65381 -2.62276,1.84741 -0.6334,2.29396 1.66132,4.31288 3.72629,3.27844 z m 90.24535,-28.75052 c 2.83004,-3.04359 4.37104,-8.31556 4.38227,-14.99242 0.006,-3.83956 -0.23582,-5.50328 -1.32112,-9.07195 -1.61138,-5.29854 -4.67414,-10.45146 -8.53671,-14.36238 -2.80197,-2.83708 -4.09837,-3.47236 -7.12619,-3.49207 -1.63974,-0.0107 -2.01704,0.0806 -3.42944,0.83003 -2.27767,1.20848 -3.21991,2.24568 -3.8923,4.2846 -0.75782,2.29799 -0.98295,5.84702 -0.43777,6.90128 0.2248,0.43471 1.26577,1.37201 2.42353,2.18218 2.45031,1.71464 4.0936,3.23927 6.31065,5.85492 4.77266,5.63077 7.78303,12.02274 9.05519,19.22697 0.65923,3.73328 1.11727,4.20324 2.57189,2.63884 z m -96.11544,-26.85059 c 2.3904,-1.17679 4.36604,-3.11419 5.48556,-5.37939 0.90944,-1.84013 0.92008,-1.89583 0.92008,-4.81663 0,-2.82199 -0.0357,-3.03028 -0.79261,-4.62844 -0.99695,-2.10489 -3.30481,-4.47243 -5.25456,-5.39043 -2.02354,-0.95275 -4.46564,-1.31768 -6.49343,-0.97033 -3.55959,0.60973 -6.84644,3.0768 -8.45399,6.34548 -0.8128,1.65268 -0.82698,1.73706 -0.81886,4.87272 0.008,3.00872 0.0488,3.27491 0.71795,4.66204 0.86349,1.78994 3.34742,4.35904 4.86253,5.02924 2.07438,0.9176 3.64571,1.22067 5.96003,1.14955 1.94902,-0.0599 2.43878,-0.17055 3.8673,-0.87381 z"
         id="path68" />
      <path
         style="fill:#035f5b;stroke-width:0.245188"
         d="m 158.79026,327.3245 c -10.07632,-0.87893 -15.58037,-1.62638 -22.46151,-3.05031 C 78.569699,312.32197 32.525373,268.53759 17.699679,211.46767 13.003145,193.38886 11.597873,174.72087 13.53125,156.09319 16.776149,124.82929 29.458352,95.229326 49.826564,71.380786 70.566835,47.096615 98.476758,29.690033 129.24512,21.849811 c 19.28924,-4.915175 38.72306,-6.134563 58.35471,-3.661505 29.87453,3.763383 58.50462,16.430206 81.27978,35.96064 13.1809,11.303062 24.82833,25.242019 33.31926,39.874522 17.86544,30.787772 24.647,66.653632 19.24654,101.790152 -6.19568,40.31054 -27.57736,76.04242 -60.25203,100.68983 -20.07532,15.14337 -44.53271,25.41161 -69.67054,29.25067 -7.94709,1.21368 -12.35837,1.53188 -22.1895,1.60061 -5.19186,0.0363 -9.93624,0.0228 -10.54308,-0.0302 z M 137.8267,294.37103 c 9.70099,-1.44391 15.35175,-3.1579 23.33856,-7.07909 15.91278,-7.81249 28.85255,-16.86346 41.21674,-28.8298 4.27742,-4.13978 7.04552,-7.22279 11.56332,-12.87881 10.08874,-12.63051 13.32227,-20.39453 14.49885,-34.81325 0.3281,-4.02077 0.12191,-30.72318 -0.27837,-36.05021 -0.29067,-3.86821 -0.98009,-7.04989 -2.14488,-9.89864 -1.02742,-2.51277 -1.51828,-2.9324 -3.12518,-2.67163 -0.71269,0.11565 -1.25527,0.45975 -2.11216,1.33948 -0.63421,0.65112 -1.23034,1.43251 -1.32474,1.73644 -0.50267,1.61837 -6.54369,14.3216 -8.36642,17.59315 -2.17854,3.91016 -5.59827,9.35893 -8.84832,14.0983 -2.38155,3.47287 -9.33841,12.53234 -12.04988,15.69177 -3.14815,3.66825 -10.23578,10.67151 -14.11822,13.95015 -3.30992,2.79517 -12.27309,8.97287 -16.67277,11.49141 -5.03558,2.88254 -11.72526,4.78171 -18.39673,5.22274 -7.38673,0.48831 -15.01377,-2.35615 -18.44168,-6.87773 -1.4728,-1.94268 -2.86839,-4.94272 -3.55131,-7.63408 -0.48631,-1.91652 -0.55118,-2.77697 -0.54298,-7.20288 0.008,-4.08202 0.11173,-5.60216 0.55443,-8.0912 0.94559,-5.31645 2.78928,-11.47879 4.95159,-16.55018 1.55371,-3.64399 6.74198,-14.18693 8.23777,-16.73975 2.01925,-3.44616 6.09648,-9.30927 9.10097,-13.08728 4.12482,-5.18676 14.95242,-15.77243 21.64316,-21.15955 2.87713,-2.31655 24.52671,-16.68573 29.17736,-19.36548 15.72721,-9.06221 26.86272,-17.28083 35.43951,-26.15635 4.72842,-4.893095 8.01075,-9.41328 10.53511,-14.508169 2.36101,-4.765194 3.49239,-10.092984 3.23857,-15.250743 -0.52764,-10.721935 -5.73321,-19.607968 -15.14964,-25.860822 -8.40853,-5.583558 -15.48605,-7.710045 -26.70792,-8.024565 -12.58558,-0.352742 -25.18242,2.621723 -37.37847,8.826099 -8.34442,4.244969 -17.37638,11.2531 -24.94216,19.353254 -4.44168,4.755396 -6.99523,8.004192 -10.84115,13.792807 -4.19451,6.313296 -4.86393,7.48626 -7.21349,12.639545 -3.56386,7.81663 -5.22636,12.106824 -6.77711,17.488814 -1.08479,3.76484 -2.21484,12.403 -1.66687,12.74166 0.38503,0.23797 0.68737,-0.27873 1.41254,-2.41402 1.80725,-5.32156 5.31077,-12.06923 8.42081,-16.21822 6.53656,-8.720197 18.63344,-16.364164 30.61869,-19.347828 10.99073,-2.736081 19.12525,-2.717697 27.64884,0.06249 5.24183,1.709756 9.37252,4.798535 11.00197,8.226874 3.07866,6.477474 2.2728,11.990604 -2.97412,20.346874 -1.90014,3.02616 -5.22753,7.41175 -7.93802,10.46249 -2.97101,3.34397 -12.87013,13.00198 -18.35633,17.90922 -2.76449,2.47276 -6.90204,6.27582 -9.19454,8.45125 -2.29251,2.17542 -6.09905,5.76478 -8.45898,7.97635 -2.35994,2.21157 -8.76017,8.44265 -14.22275,13.84684 -5.46258,5.4042 -10.90787,10.76365 -12.10064,11.90991 -5.13996,4.9395 -15.36247,16.53079 -18.70427,21.20875 -5.18753,7.26166 -10.635798,17.84365 -13.633696,26.48029 -5.200304,14.98153 -5.716596,24.22595 -1.981986,35.48836 3.745068,11.29397 9.644521,18.46687 19.490632,23.6979 7.82657,4.15807 15.02655,5.53377 27.66737,5.28635 3.36126,-0.0658 6.16349,-0.26765 8.45899,-0.60929 z m 99.32452,-84.18593 c 4.01138,-3.43359 9.65393,-19.01784 10.45883,-28.8865 0.73289,-8.98553 0.29996,-17.78905 -1.19132,-24.22466 -1.57569,-6.7999 -4.79361,-13.64285 -8.40562,-17.8747 -1.95984,-2.29616 -4.99277,-4.2374 -6.6899,-4.2819 -1.81072,-0.0475 -3.19909,1.84662 -4.10948,5.60642 -0.79782,3.29486 -2.02736,10.45645 -2.06267,12.01421 -0.0355,1.56824 -0.1062,1.38639 2.23879,5.76191 2.63964,4.92531 4.66857,11.03103 6.2855,18.91513 2.10094,10.24416 2.49405,18.00492 1.48817,29.37959 -0.34759,3.93069 -0.28091,4.42067 0.60161,4.42067 0.22892,0 0.85267,-0.37357 1.38609,-0.83017 z m -68.84971,-12.76038 c 3.47287,-1.1812 5.67142,-3.35938 6.75278,-6.69018 0.72311,-2.22735 0.77951,-2.97007 0.3882,-5.11248 -1.27916,-7.00327 -8.82131,-10.93623 -15.05965,-7.85308 -6.55373,3.23904 -8.21075,11.45123 -3.392,16.81083 2.84034,3.15915 7.17858,4.25032 11.31067,2.84491 z m 83.50858,-36.26922 c 2.83004,-3.04359 4.37104,-8.31556 4.38227,-14.99242 0.006,-3.83956 -0.23582,-5.50328 -1.32112,-9.07195 -1.61138,-5.29854 -4.67414,-10.45146 -8.53671,-14.36238 -2.80197,-2.83708 -4.09837,-3.47236 -7.12619,-3.49207 -1.63974,-0.0107 -2.01704,0.0806 -3.42944,0.83003 -2.27767,1.20848 -3.21991,2.24568 -3.8923,4.2846 -0.75782,2.29799 -0.98295,5.84702 -0.43777,6.90128 0.2248,0.43471 1.26577,1.37201 2.42353,2.18218 2.45031,1.71464 4.0936,3.23927 6.31065,5.85492 4.77266,5.63077 7.78303,12.02274 9.05519,19.22697 0.65923,3.73328 1.11727,4.20324 2.57189,2.63884 z m -96.11544,-26.85059 c 2.3904,-1.17679 4.36604,-3.11419 5.48556,-5.37939 0.90944,-1.84013 0.92008,-1.89583 0.92008,-4.81663 0,-2.82199 -0.0357,-3.03028 -0.79261,-4.62844 -0.99695,-2.10489 -3.30481,-4.47243 -5.25456,-5.39043 -2.02354,-0.95275 -4.46564,-1.31768 -6.49343,-0.97033 -3.55959,0.60973 -6.84644,3.0768 -8.45399,6.34548 -0.8128,1.65268 -0.82698,1.73706 -0.81886,4.87272 0.008,3.00872 0.0488,3.27491 0.71795,4.66204 0.86349,1.78994 3.34742,4.35904 4.86253,5.02924 2.07438,0.9176 3.64571,1.22067 5.96003,1.14955 1.94902,-0.0599 2.43878,-0.17055 3.8673,-0.87381 z"
         id="path66" />
      <path
         style="fill:#19254e;stroke-width:0.245188"
         d="m 158.79026,327.3245 c -10.07632,-0.87893 -15.58037,-1.62638 -22.46151,-3.05031 C 78.569699,312.32197 32.525373,268.53759 17.699679,211.46767 13.003145,193.38886 11.597873,174.72087 13.53125,156.09319 16.776149,124.82929 29.458352,95.229326 49.826564,71.380786 70.566835,47.096615 98.476758,29.690033 129.24512,21.849811 c 19.28924,-4.915175 38.72306,-6.134563 58.35471,-3.661505 29.87453,3.763383 58.50462,16.430206 81.27978,35.96064 13.1809,11.303062 24.82833,25.242019 33.31926,39.874522 17.86544,30.787772 24.647,66.653632 19.24654,101.790152 -6.19568,40.31054 -27.57736,76.04242 -60.25203,100.68983 -20.07532,15.14337 -44.53271,25.41161 -69.67054,29.25067 -7.94709,1.21368 -12.35837,1.53188 -22.1895,1.60061 -5.19186,0.0363 -9.93624,0.0228 -10.54308,-0.0302 z M 137.8267,294.61622 c 6.43464,-0.95776 11.72611,-2.22428 16.04856,-3.84129 8.96007,-3.35191 24.18616,-12.02369 33.47938,-19.06765 13.21365,-10.0155 25.07375,-22.36981 32.98538,-34.35988 4.35702,-6.60306 6.99291,-14.17609 8.09846,-23.26728 0.51194,-4.20987 0.68692,-20.63593 0.32908,-30.89367 -0.35842,-10.27447 -0.3845,-10.60758 -1.09943,-14.03836 -0.52101,-2.50019 -2.00942,-6.47278 -2.61278,-6.97352 -0.21171,-0.17571 -0.97099,-0.31946 -1.68729,-0.31946 -1.24872,0 -1.35829,0.0552 -2.65979,1.34055 -0.74657,0.7373 -1.42728,1.56481 -1.51269,1.83891 -0.2036,0.65347 -5.5091,12.21186 -6.59756,14.37326 -4.26849,8.47608 -14.55864,23.51181 -22.38661,32.71079 -3.08366,3.62374 -11.76017,12.21033 -14.99357,14.83819 -2.78391,2.26255 -12.25049,8.65931 -16.0598,10.85195 -6.39553,3.68125 -16.10545,5.87043 -22.56173,5.08672 -7.74191,-0.93977 -12.93551,-4.09044 -15.54316,-9.42916 -1.85237,-3.7924 -2.47455,-6.78206 -2.4721,-11.87879 0.003,-6.56915 1.40162,-13.33108 4.46469,-21.58801 1.42777,-3.84874 7.05928,-15.73249 9.1314,-19.26927 5.01615,-8.56184 12.67644,-18.12728 19.65463,-24.54286 1.44981,-1.33292 3.76822,-3.48778 5.15203,-4.78858 1.38381,-1.3008 3.92057,-3.4937 5.63724,-4.87312 3.63441,-2.9204 23.66261,-16.28394 29.39217,-19.61153 9.00475,-5.22973 15.00544,-9.09971 20.59578,-13.28273 13.23161,-9.90062 21.0774,-18.32523 25.74868,-27.648256 2.28527,-4.560972 3.48617,-10.252694 3.23617,-15.337952 -0.57014,-11.597138 -6.59617,-21.049307 -17.53173,-27.499476 -5.55938,-3.279118 -10.56632,-5.118515 -16.70308,-6.136204 -3.78402,-0.627524 -15.68592,-0.629196 -19.51401,-0.0027 -5.93752,0.971655 -12.90991,2.776775 -16.81988,4.354593 -1.40248,0.565955 -2.9913,1.185895 -3.53071,1.377644 -3.50954,1.247573 -10.55587,5.175288 -15.02695,8.376221 -9.18682,6.57701 -17.81759,15.166421 -24.05698,23.94168 -4.42854,6.228421 -7.12486,10.779971 -9.66001,16.306657 -5.75752,12.551553 -7.23321,17.313853 -8.39415,27.089263 -0.30835,2.59638 -0.30617,2.98103 0.0187,3.30588 0.64152,0.64152 1.15569,-0.0212 2.1039,-2.7119 1.95493,-5.54736 5.15325,-11.66708 8.27181,-15.82744 4.2936,-5.727948 11.56689,-11.490267 18.97277,-15.031324 4.61988,-2.208956 7.5851,-3.291112 11.79267,-4.303733 11.29042,-2.717224 18.47117,-2.691685 27.06926,0.09627 4.33948,1.407089 8.41584,4.085561 10.12635,6.653776 1.59849,2.400014 2.83021,7.020351 2.57253,9.649931 -0.86271,8.80399 -9.76305,20.86801 -26.9475,36.52613 -2.71347,2.47245 -6.43508,5.86409 -8.27027,7.53697 -6.28018,5.72479 -18.9557,17.75023 -23.62544,22.41379 -2.56692,2.56351 -7.92198,7.86225 -11.90015,11.77499 -11.03261,10.85114 -19.56306,20.4242 -23.957157,26.88525 -6.813717,10.01885 -12.35852,22.28282 -15.277386,33.79044 -2.906202,11.4577 -2.227804,20.54635 2.333423,31.26145 3.355811,7.88338 7.969672,13.36359 14.85788,17.64779 5.6676,3.52504 11.20405,5.58442 17.50727,6.51214 5.69005,0.83748 16.1353,0.82932 21.82172,-0.0172 z m 99.41374,-84.4793 c 1.65458,-1.49481 3.69886,-5.07438 5.58953,-9.78732 1.29545,-3.22923 2.07434,-5.72591 3.39092,-10.86931 0.89059,-3.47922 1.13407,-4.92324 1.34358,-7.96861 0.14074,-2.04565 0.33556,-4.49171 0.43295,-5.43568 0.24487,-2.37347 -0.0701,-9.93812 -0.56138,-13.48533 -0.92703,-6.69271 -2.28585,-11.28302 -4.80081,-16.2179 -2.98138,-5.85007 -5.71658,-9.06234 -9.16955,-10.76889 -2.11389,-1.04474 -3.0773,-1.0259 -4.11399,0.0805 -1.41354,1.50855 -1.96883,3.25443 -3.24613,10.20608 -1.42403,7.75029 -1.43379,7.57541 0.62356,11.18351 2.18382,3.82992 4.38364,9.56197 5.73064,14.93229 3.12631,12.4642 3.83355,22.18544 2.59585,35.68077 -0.25994,2.83425 -0.14818,3.32827 0.75295,3.32827 0.25281,0 0.89715,-0.39526 1.43188,-0.87835 z m -70.15701,-11.99901 c 6.40541,-1.51006 10.08833,-7.35122 8.49413,-13.47176 -0.8189,-3.14396 -3.11423,-5.86231 -6.17371,-7.31148 -1.57508,-0.74606 -1.81598,-0.78829 -4.49661,-0.78829 -2.77349,0 -2.87066,0.0189 -4.67343,0.90989 -6.04171,2.98598 -8.20093,10.34759 -4.64343,15.83125 1.18862,1.8322 2.6566,3.12794 4.54472,4.0115 2.54457,1.19075 4.42896,1.41283 6.94833,0.81889 z m 84.68346,-36.83448 c 1.65681,-1.76608 3.13041,-4.80543 3.72078,-7.67421 1.35,-6.56012 0.91183,-13.11773 -1.24433,-18.62218 -2.53142,-6.46251 -7.61473,-13.28519 -11.14064,-14.95268 -1.7731,-0.83854 -3.81925,-1.11517 -5.4817,-0.7411 -1.53367,0.3451 -4.34406,2.05772 -4.88814,2.97878 -0.86081,1.45724 -1.40401,3.5476 -1.54482,5.9449 -0.17019,2.89746 0.0951,3.58539 1.79838,4.66295 2.27662,1.44029 4.59525,3.44833 6.49775,5.62735 5.13439,5.88064 8.45377,12.70094 9.66061,19.84955 0.49236,2.91638 0.76842,3.60091 1.4522,3.60091 0.29555,0 0.82201,-0.30342 1.16991,-0.67427 z m -96.07261,-26.88298 c 2.04205,-0.99967 4.63377,-3.52087 5.53829,-5.38761 2.74212,-5.65917 0.45406,-12.18824 -5.26112,-15.01284 -1.60827,-0.79485 -2.16192,-0.9395 -3.95641,-1.03369 -4.43637,-0.23285 -7.88452,1.6016 -10.48407,5.57762 -2.59242,3.9651 -1.91477,9.90569 1.52832,13.39812 2.4208,2.45549 4.73289,3.32074 8.62052,3.22604 2.26569,-0.0552 2.74718,-0.14726 4.01447,-0.76764 z"
         id="path64" />
      <path
         style="fill:#000033;stroke-width:0.245188"
         d="m 161.85511,327.0773 c -0.53942,-0.041 -2.80128,-0.19605 -5.02636,-0.34449 C 127.42789,324.77148 98.293846,313.84292 74.396354,295.81136 64.692186,288.48919 54.438466,278.46675 46.657785,268.69844 32.293996,250.66529 21.869083,228.87858 16.850994,206.40611 c -2.930345,-13.12294 -4.350225,-28.39338 -3.720687,-40.01503 0.529234,-9.77 1.392236,-16.95423 2.989483,-24.88657 C 21.430445,115.13044 33.590331,90.471446 51.206822,70.351614 77.716075,40.075344 113.76718,21.74185 154.37688,17.88533 c 6.93144,-0.658248 21.14162,-0.600458 28.1966,0.114671 17.64106,1.788185 33.91854,6.099386 49.27647,13.051204 51.16814,23.161443 85.77962,72.161885 90.48826,128.106835 2.19168,26.03986 -2.29361,52.56961 -12.89948,76.29834 -10.75404,24.06026 -27.5114,45.05641 -48.52773,60.80286 -22.47723,16.84103 -49.65269,27.41694 -77.35677,30.10505 -7.75192,0.75216 -17.13172,1.06037 -21.69912,0.71301 z m -27.49789,-31.96588 c 5.6894,-0.47137 13.62777,-2.07931 18.18075,-3.68257 8.02637,-2.82636 19.39478,-8.93281 30.1581,-16.19922 13.47973,-9.10027 27.42823,-22.83001 36.59167,-36.01775 5.43141,-7.81674 8.044,-14.76138 9.28292,-24.67538 0.61954,-4.9577 0.82024,-19.67095 0.42763,-31.35005 -0.40008,-11.90114 -0.75467,-14.49236 -2.58354,-18.87947 -0.70575,-1.69296 -0.94456,-2.0237 -1.74436,-2.41586 -1.41554,-0.69407 -2.41157,-0.39373 -4.12995,1.24533 -0.78868,0.75228 -1.43397,1.45961 -1.43397,1.57186 0,0.37726 -5.66094,12.56313 -7.21718,15.53589 -4.86665,9.29632 -13.991,22.56331 -21.92158,31.87442 -3.08794,3.62548 -11.5191,11.96686 -14.74987,14.5928 -2.9199,2.37328 -12.5097,8.83106 -16.33009,10.9967 -5.23181,2.96572 -11.08645,4.62739 -17.88125,5.07509 -6.56837,0.43277 -13.14983,-1.66835 -16.93576,-5.4067 -3.11289,-3.07378 -4.83151,-7.48033 -5.23569,-13.42437 -0.50519,-7.42935 1.31542,-16.49472 5.25713,-26.17701 0.57645,-1.41596 2.64436,-5.82934 4.59537,-9.80752 3.01308,-6.14378 4.04604,-7.97711 6.85924,-12.17389 4.78227,-7.13431 10.08685,-13.53308 15.31543,-18.47459 6.97243,-6.58961 10.36414,-9.58258 13.93514,-12.29687 3.21142,-2.44098 23.83383,-15.95556 28.50752,-18.68197 19.33906,-11.28147 32.13182,-21.5365 40.21836,-32.240137 5.78026,-7.650945 8.14157,-14.037319 8.13973,-22.014609 -0.002,-9.419662 -3.19393,-16.863293 -10.08588,-23.521673 -5.41964,-5.235975 -14.44011,-9.898342 -21.78776,-11.261341 -14.61708,-2.711489 -30.61895,-0.329538 -45.8792,6.82933 -12.66641,5.942044 -26.78712,18.196406 -35.91944,31.171931 -4.50632,6.402736 -7.02598,10.673212 -9.47558,16.059805 -4.55351,10.013034 -6.87364,16.638384 -7.68255,21.938224 -0.88324,5.78681 -1.04712,7.81591 -0.67872,8.40377 0.36208,0.57779 0.73427,0.67939 1.26202,0.34452 0.17305,-0.1098 0.74083,-1.40454 1.26174,-2.8772 1.46239,-4.13434 2.56344,-6.54464 4.70937,-10.30928 3.40459,-5.9727 6.29127,-9.378478 11.49328,-13.560046 3.66623,-2.947056 6.82868,-4.950794 10.84324,-6.870321 7.65095,-3.65824 14.28775,-5.460253 22.79289,-6.188689 6.96809,-0.596792 14.45799,0.75804 20.0571,3.628087 2.19933,1.127354 4.88334,3.281153 5.84653,4.691581 1.71355,2.509189 2.87523,6.74719 2.63863,9.626118 -0.40049,4.87325 -3.62626,11.1684 -9.67425,18.87946 -3.30062,4.20823 -12.94275,13.90272 -21.23161,21.34689 -3.36363,3.02086 -7.56252,6.87362 -9.33086,8.56168 -1.76833,1.68806 -5.57897,5.27589 -8.46809,7.97296 -2.88912,2.69706 -7.02048,6.67795 -9.18082,8.84641 -2.16034,2.16846 -7.18276,7.12744 -11.16093,11.01995 -9.57564,9.36946 -17.83619,18.29659 -22.64197,24.46907 -7.797523,10.01502 -14.720275,24.31867 -18.058508,37.31213 -1.371475,5.33821 -1.765605,8.32765 -1.777911,13.48533 -0.01486,6.22828 0.881044,10.85052 3.262813,16.83381 4.027535,10.11763 9.52599,16.26375 19.110166,21.36121 3.969,2.11094 8.67274,3.66264 13.22164,4.3616 4.11724,0.63263 14.27303,0.88115 19.22891,0.47056 z m 103.01552,-84.72205 c 2.30083,-1.88536 5.85397,-9.21558 7.83517,-16.16418 1.86609,-6.54482 2.33447,-8.82984 2.59949,-12.68141 0.14199,-2.0633 0.34071,-4.54497 0.44163,-5.5148 0.24276,-2.33258 -0.0783,-10.02385 -0.56601,-13.5609 -1.13858,-8.257 -3.52706,-14.87447 -7.5282,-20.85756 -3.40271,-5.08823 -8.23206,-8.07323 -10.57634,-6.5372 -0.81246,0.53234 -1.96394,2.75562 -2.50137,4.82962 -0.51929,2.00401 -2.00336,9.99986 -2.20859,11.89946 -0.1898,1.7567 0.10393,2.70452 1.73413,5.59578 2.55856,4.53777 4.67258,10.41349 6.19079,17.20669 2.64165,11.82007 3.1648,20.45363 2.00332,33.0608 -0.29263,3.17628 -0.18669,3.59479 0.90995,3.59479 0.33164,0 1.08135,-0.39199 1.66603,-0.87109 z M 168.236,198.01825 c 4.05336,-1.39456 6.36979,-3.79048 7.56747,-7.82715 1.46361,-4.93299 -1.16514,-10.47295 -6.13499,-12.92918 -1.87655,-0.92744 -1.94362,-0.94073 -4.74853,-0.94073 -2.78869,0 -2.88129,0.018 -4.67128,0.90759 -5.88595,2.92522 -8.21626,9.40607 -5.43402,15.11259 2.43504,4.99439 8.25275,7.45513 13.42135,5.67688 z m 84.65824,-37.71653 c 1.57359,-2.2433 2.44835,-4.44083 3.02937,-7.61025 0.61628,-3.36167 0.72097,-8.92129 0.22219,-11.79993 -0.71274,-4.11358 -3.06728,-9.77767 -5.65457,-13.60275 -1.60459,-2.37221 -4.68378,-5.83926 -5.9432,-6.69177 -3.22671,-2.18419 -6.57799,-2.26052 -9.89736,-0.22541 -1.35758,0.83232 -1.82624,1.28807 -2.37639,2.31092 -1.28849,2.39561 -1.85074,7.30669 -1.02035,8.91249 0.21988,0.4252 1.11879,1.20165 2.14539,1.85312 1.04204,0.66127 2.92375,2.29242 4.58662,3.97586 5.79239,5.86411 9.37098,12.73992 10.80008,20.75099 0.56008,3.13974 0.73654,3.6483 1.39345,4.01591 0.6638,0.37148 1.57264,-0.26097 2.71477,-1.88918 z m -98.3833,-25.18515 c 2.644,-0.72531 5.84711,-3.47912 7.05978,-6.06951 2.06057,-4.4016 1.27874,-9.19225 -2.08921,-12.80154 -2.43437,-2.60882 -5.13639,-3.67202 -8.91233,-3.50688 -2.03124,0.0888 -2.46527,0.19744 -4.19406,1.04944 -6.89942,3.40024 -8.85675,11.91752 -4.07873,17.74847 2.84014,3.46601 7.57321,4.85325 12.21455,3.58002 z"
         id="path62" />
    </g>
  </g>
</svg>
